<svg viewBox="0 0 1920 26.79"
    xmlns="http://www.w3.org/2000/svg">
    <defs>
        <style>.cls-1{fill:#002e48;}</style>
    </defs>
    <g data-name="Layer 2" id="Layer_2">
        <g data-name="Layer 1" id="Layer_1-2">
            <path class="cls-1" d="M1151.68,7.24c2.21.25,8.55,0,10.15-1.21,2.89-2.18-2.75-2.19-3.21-4.21.93.65,3.44,1.93,3.87,2.31,1.71-1.67,2.4-3.23,4.08-4.13h-15.11c1.29,1.07.26,3.18.06,4-2.16-3.41-6-2.33-4.72.63C1147.54,6.44,1146.17,6.59,1151.68,7.24Z"></path>
            <path class="cls-1" d="M768.56,5.61h0S768.58,5.63,768.56,5.61Z"></path>
            <path class="cls-1" d="M763.16,3.18l.07,0C763.33,3.25,763.33,3.24,763.16,3.18Z"></path>
            <path class="cls-1" d="M790.45,2.33c4-3.18,12.74,2.22,14.41.66,2.27-2.12-4.63-1.5-6-3H780.59c-.05.09-.13.18-.18.27-.13-.1-.29-.18-.43-.27h-3.17c1.34,1.55,6.85,3.51,8,4C786.55,2.49,786.58,1.14,790.45,2.33Z"></path>
            <path class="cls-1" d="M820.42,2c.46-.27,9.28,3.09,10.39-2h-12c-2.8,0-5.36.13-5.31.34a.63.63,0,0,1-.22-.34h-10.4A36.87,36.87,0,0,0,813,2.86C821.38,3.65,815.64,5,820.42,2Z"></path>
            <path class="cls-1" d="M885.57,1.85a6.91,6.91,0,0,1,4.18,1.61,11.43,11.43,0,0,1-4.64,1.86s-2.16,5.08,1.36,5.16c.74,0,6.63-2.14,6.91-1.67a2.34,2.34,0,0,0,1.12,1.91c-.17,0,2.21,0,2.12-.06-.16-1.33,9.42-5.82,7.65-6.43-.85-.05-1.7-.09-2.55-.1-3.16-2.56-.62-5,1.29-2.92a10.91,10.91,0,0,0,3-1.21H893.73c-.6,1-.47,2.3.87,4,1.23,0,5.94.13,7.1.13-.88,1.69-4.31,1.8-7,0-1.71-1.33-3.84-3-5.58-4.13h-8.82C881.15.75,885,.63,885.57,1.85Z"></path>
            <path class="cls-1" d="M881.29,3.88c-2.65-2.74-10,1.87-14.09-.29,5.75-.39,9-1.9,9.35-3.59H865c-4.9,1.41-10.32,2.28-8.68,3.65C861.25,7.79,876,3.82,881.29,3.88Z"></path>
            <path class="cls-1" d="M836.8,3.05c3.33.1,6.66.18,10,.22a22.9,22.9,0,0,0,.79,2.23A31.37,31.37,0,0,0,851.23,5c-.05,0-1.66-3.06-1.85-3.37,1.49.59,3.18-.41,4.36-1.59H836.4A5.35,5.35,0,0,0,834,1.8C837,1.44,836.55,3,836.8,3.05Z"></path>
            <path class="cls-1" d="M821.1,6.44c-1.58.24-14.93,1.29-14.41,2.39A4.62,4.62,0,0,1,808.41,10c1.56-.34,14.28-1.35,10.13,1.5,3.21.1,7,.42,10.29.68-3.69-2.16,3.87-4.94,8.32-5.47-1.85-.59-1.91-1.17-.22-1.76.37.22.7.41,1,.58q.35-.9-.81-.63l.08,0c-1.31.36-1.42-.23-.35-1.77.16-.06-5.27,2.23-4.83,2-.47-.88-1.75-.59-3.85.91C826.21,7.58,823.86,7.74,821.1,6.44Z"></path>
            <path class="cls-1" d="M925.74,13.41c9.45-.36-1.41-2.3-1.69-2.71-3.65-5.27-6.14-9.58-8.92-.64C914.17,11.21,923.43,13.5,925.74,13.41Z"></path>
            <path class="cls-1" d="M718.12,4c3.31-.5,4.53-.45,3.69.15h0c-.05.06,0,0,.24-.07l0,0c2.17-1.14,2.31-3.3,4.93-4H713.79l-.55.2C716.08,1.41,718.21,2.69,718.12,4Z"></path>
            <path class="cls-1" d="M735.54,6.07c1.42-1.6,2.21-4.94-2.81-5.41C733.19,2,732.78,4.78,735.54,6.07Z"></path>
            <path class="cls-1" d="M901.13,14c2.84-.83,3.46-2.1,1.91-3.8C900.75,11.4,899.11,12.57,901.13,14Z"></path>
            <path class="cls-1" d="M975.48,4.92l.13-.07C975.45,4.72,975.38,4.71,975.48,4.92Z"></path>
            <path class="cls-1" d="M872,9.45c1.77,2.23,5.51-.71,6.24-.83C880.38,8.25,873,6.68,872,9.45Z"></path>
            <path class="cls-1" d="M867.61,11.16c2.29-1.28,2-.71-2.65-2.83C864.85,8.28,861,10.81,867.61,11.16Z"></path>
            <path class="cls-1" d="M850.12,12.72a4.35,4.35,0,0,0,1.28-3.53C843.21,9.84,848.26,10.45,850.12,12.72Z"></path>
            <path class="cls-1" d="M872.36,12.87a5,5,0,0,0-5,2.82l3.94.06C871.42,15.54,873.11,13,872.36,12.87Z"></path>
            <path class="cls-1" d="M803.58,13.59c-1.53.21,4,3.66,6.33,1.32C809.53,14.73,805.52,13.32,803.58,13.59Z"></path>
            <path class="cls-1" d="M939.83,10.38,941.14,9c-.52.1-3.11.08-4.39.36C937.26,10,938.3,10.36,939.83,10.38Z"></path>
            <path class="cls-1" d="M727.47,3.51a24.72,24.72,0,0,1-3.81-.25c.81-.51-.92.47-1.6.8C724.19,5.23,728.5,5.48,727.47,3.51Z"></path>
            <path class="cls-1" d="M727.24,3.15a2.64,2.64,0,0,1,.23.36C727.85,3.47,727.77,3.35,727.24,3.15Z"></path>
            <path class="cls-1" d="M812.34,13.31c-2.09-.09-2.32,1-2.21,1.71C810.68,14.86,816.49,13.48,812.34,13.31Z"></path>
            <path class="cls-1" d="M810.13,15Z"></path>
            <path class="cls-1" d="M861.55,11.87c-3,.3-1.66,1.69-.35,2.57C861.44,13.37,862.18,13.4,861.55,11.87Z"></path>
            <path class="cls-1" d="M808.11,9.83c-.49.47-3.77,1.26-.76,2.11A1.82,1.82,0,0,0,808.11,9.83Z"></path>
            <path class="cls-1" d="M941.14,9,949,7.65C946.3,7.15,942.81,7.65,941.14,9Z"></path>
            <path class="cls-1" d="M932.54,1.27c.9.26,1.78.5,2.65.76C936.75,1.41,933.72.82,932.54,1.27Z"></path>
            <path class="cls-1" d="M949.33,2.42c-.17-1-1.12-1.12-2.84-.48C946.65,2.88,947.61,3,949.33,2.42Z"></path>
            <path class="cls-1" d="M970,3.24c.43-1.34-.77-1.9-3.66-1.66C967.5,2.5,966.82,3.17,970,3.24Z"></path>
            <path class="cls-1" d="M1025.83,4.29c-.3-1.09-1.28-1.21-2.89-.37C1023.54,5.15,1024.5,5.28,1025.83,4.29Z"></path>
            <path class="cls-1" d="M732.5,6.15c-1.71-1.13-3-1.14-4.06,0C730.13,6.87,731.5,6.88,732.5,6.15Z"></path>
            <path class="cls-1" d="M851,5.07a11.92,11.92,0,0,0,4.88,1.17C855.05,5.19,853.64,5,851,5.07Z"></path>
            <path class="cls-1" d="M859.67,7.58c2.13-.23,2.54-.64,1.14-1.24Q857.75,6.75,859.67,7.58Z"></path>
            <path class="cls-1" d="M856.37,9.27C855,8.36,854.54,7.6,854.89,7l-1.6,1.18C854,8.42,856.81,9.51,856.37,9.27Z"></path>
            <path class="cls-1" d="M853.12,8.13,853,8.08c-2,.4-2.54.77-1.64,1.11,1.82-.35,2.4-.69,1.76-1l.09,0,0,0C853.15,8.13,853.08,8.11,853.12,8.13Z"></path>
            <path class="cls-1" d="M854.89,7l1-.75A2,2,0,0,0,854.89,7Z"></path>
            <path class="cls-1" d="M704.86,12.66c-1.42-.39-4.42-.72-4.42.66C702.13,13.23,703.22,13.73,704.86,12.66Z"></path>
            <path class="cls-1" d="M930.66,13.67c1.45.93,2.67.93,3.71,0C933.91,12.34,932.68,12.34,930.66,13.67Z"></path>
            <path class="cls-1" d="M786.75,15.88c1.17-.53,2-.18,2.64-1.51-2.66-.24-4.46.15-2.68,1.49l-.19-.08.09.34C786.91,16.06,787,16,786.75,15.88Z"></path>
            <path class="cls-1" d="M931.81,3.65c-.09-.79-.77-.92-2-.39C929.9,3.91,930.58,4,931.81,3.65Z"></path>
            <path class="cls-1" d="M938.17,4.82c-1.26,0-2,.25-2.19.84C934.51,6,941.33,5.19,938.17,4.82Z"></path>
            <path class="cls-1" d="M781.47,6.57S781.34,5,781.36,5C777,4.2,780.87,6.34,781.47,6.57Z"></path>
            <path class="cls-1" d="M929.6,6.11c-1.05-.72-1.93-.67-2.49-.08A20.1,20.1,0,0,1,929.6,6.11Z"></path>
            <path class="cls-1" d="M926.81,6.44a1.81,1.81,0,0,1,.3-.41C926.42,6.06,926.31,6.2,926.81,6.44Z"></path>
            <path class="cls-1" d="M925.91,8.08c1.42-.27,1.64-.84.71-1.74C926.32,6.88,924,7.61,925.91,8.08Z"></path>
            <path class="cls-1" d="M880.45,11.24c.36,0,.81.1,1.38.19C882,10.93,881.47,10.86,880.45,11.24Z"></path>
            <path class="cls-1" d="M880.45,11.24c-.74-.08-1,0-.8.11-1.86,1.18-3.39,1.93-1.4,3.51,2.86-.65,3.33-1.81,1.41-3.5a1.72,1.72,0,0,0,.21.12C880.08,11.38,880.27,11.31,880.45,11.24Z"></path>
            <path class="cls-1" d="M839.33,10.17c.17-.34,1.37-.91.14-1.09C839.44,9.44,839.39,9.81,839.33,10.17Z"></path>
            <path class="cls-1" d="M837.88,5.48a5.18,5.18,0,0,1-.73,1.18C838.57,6.25,838.53,5.93,837.88,5.48Z"></path>
            <path class="cls-1" d="M784.8,4c-.27,0-2.81.13-3.44.91C785.35,4.25,784.86,5.79,784.8,4Z"></path>
            <path class="cls-1" d="M905.79,15.81l-.54.12Z"></path>
            <path class="cls-1" d="M993.13,10.91c.63.3,1.86,2.17,4.51,1.14C996.74,11.11,995.24,10.72,993.13,10.91Z"></path>
            <path class="cls-1" d="M442.65,15c3.14-1.06,3.38-1.31.74-2.57C441.75,13.21,441.5,14.06,442.65,15Z"></path>
            <path class="cls-1" d="M1082.49,1.62a9.2,9.2,0,0,0-4,1.73c1.16.69,4.94.38,7.29.39a12.22,12.22,0,0,1-.76-1.16,9.45,9.45,0,0,1-.57-1.2c-.36,0-.68.07-1,.11,0-.7-.58-1.14-1.34-1.49H1072a17.88,17.88,0,0,1-2.33,1.75A97.9,97.9,0,0,0,1082.49,1.62Z"></path>
            <path class="cls-1" d="M1218.39,3.34a8,8,0,0,0,1.72-.08l-1.37-1c-.75.51-1,.86-.74,1l-1.82.86C1218.13,4.42,1218.85,4.16,1218.39,3.34Z"></path>
            <path class="cls-1" d="M383.58,4.1c.2-.7-.3-1.29-1.53-1.77,1.18.39.58.08-1.79-.88C373.51,2,382.3,5.07,383.58,4.1Z"></path>
            <path class="cls-1" d="M508.24,5.8l-1.07-1.11C505.37,5.73,505.72,6.09,508.24,5.8Z"></path>
            <path class="cls-1" d="M550.68,14.65l2.81.2C552.81,14.77,551.41,14.31,550.68,14.65Z"></path>
            <path class="cls-1" d="M459.84,3.14a11.35,11.35,0,0,0-1.06-1C457.91,2.71,458.26,3.05,459.84,3.14Z"></path>
            <path class="cls-1" d="M1920,26.79v-20h-.26a8.82,8.82,0,0,1-2.81-.95,36.67,36.67,0,0,1-4.13,2.45c-.28-.91.94-2.09,2.62-3.27a22.6,22.6,0,0,0-4.3-2.18c-2.81-.88-5.56-.58-8.3-.21.18.6-.21,1.39-2.8,1.12a2.64,2.64,0,0,1,.76-.86c-3,.37-6,.48-9.07-1.22-3.21-1.81-5.55-.32-8.89-.05-3.57.3-7.13,0-10.69,0a39.64,39.64,0,0,1-5.75-.52c-2.66,2.19-5.37,4.14-8.11,4-1,.81-1.88,1.43-1.89,1.44-6.44-1.64-7.18-3.22-13.81-4.18,3.67-2.16,7.78-.61,11.31.45-.19-.2-.38-.39-.57-.61A9.81,9.81,0,0,1,1852,0h-13.42a6.46,6.46,0,0,1-.73.84,7.19,7.19,0,0,1-9.17,1.24c-1.07-.59-2.1-1.4-3.15-2.08h-1.48a7.62,7.62,0,0,1-3.82,3.92c-2.06.87-3.84-.4-5.66-1.49-.11,1.13-4.68,1.29-6.66.29a22.16,22.16,0,0,1,4.64-1.29,3,3,0,0,0-.49-.14c-2.89-.68-6,.37-9,.91a2.78,2.78,0,0,1,.53.11c-.27.64-1,.78-2.16.42a1.19,1.19,0,0,1,.33-.34c-.33,0-.66.08-1,.09-7.18.31-14.24-.91-21.37-1.07-3.37-.07-7.2,1-10.47-.67.88,1.08-.85,3.21-3.62,2.18-.47-1,.68-1.84,3.31-2.36a8.49,8.49,0,0,1-.87-.56h-6.55a5.19,5.19,0,0,1-2.52,2.6A17.49,17.49,0,0,1,1749,3.73a17.14,17.14,0,0,1-3.06.55c-.16-.15.81-.4,2-.7-4.6-.8-9.16-2.67-13.77-3.58h-9.06a21.26,21.26,0,0,1-7.51,0h-7.47a12.68,12.68,0,0,1-1,2c-3.29,5.52-9.68,3.8-13.43,1a5.8,5.8,0,0,1-2-3h-.14a21.84,21.84,0,0,0-5.09.8c-3.27,1-6.14,2.25-9.5,1.15A42.28,42.28,0,0,1,1675,0h-3.12a6,6,0,0,0-1.3.84,3.18,3.18,0,0,1-4,.4l-.52,0c.07-.08.15-.12.22-.19a5.58,5.58,0,0,1-1-1h-20.93c4.48,3.63-13.18,3-15.31.67a4.82,4.82,0,0,1-3,3.25,19.33,19.33,0,0,1-9.4.37c-3.69-.68-6.71.2-10.35,1-2.89.59-5.09,0-7.59-2.51a12.68,12.68,0,0,0-4-2.74h-6.31a6.45,6.45,0,0,1-.95,1.28c-1,1-2.73,1.63-3.88.87a8.18,8.18,0,0,0-1.87-.89,6.94,6.94,0,0,0-.9-.12A3.72,3.72,0,0,1,1580,1c-.94,2.08-2.34,3.51-3.88,3.23-2-.38-4,.14-6.07.29a9.13,9.13,0,0,1-6.48-2.19c-1.67.11-2.24-.48-4-.86.72.11,2.16.27,3.44.39A5.76,5.76,0,0,1,1561.74,0h-16.22A4,4,0,0,1,1542,2.46c-3.47,0-6.8-1.46-10.19-2.46h-3.36c-1.6.63-6,2.21-5.44.66a1.27,1.27,0,0,1,1-.66h-5.8c-1.93.36-3.86.74-5.83,1a11.25,11.25,0,0,1-4.4-.47,2.12,2.12,0,0,0,2.77,1.72h.07c-.26.08-.4.29-.56,1-1.15-1.53-6.42-1.55-3.22-3l-.73-.24h-3.61a8.62,8.62,0,0,1-4.6,2.49c.73.12,1.47.28,2.25.45-2.69.16-5.54.29-7.3-.3a9.7,9.7,0,0,1,2.55-.37c-.6-.17-1.2-.38-1.79-.61a4.33,4.33,0,0,0-2.17-.51c1,.31,1.33.77,1.06,1.36a2,2,0,0,1-1.31-1.38,1.81,1.81,0,0,1-.23,0c-2.35,1.42-4.68,2.78-7.39,2.69a3.52,3.52,0,0,1-2-.76c-2.29-.18-4.47-1.09-6.83-1.78-2.63-.76-4.79-.11-7.41.51-2.38.57-4.8,1-7.12-.4A7,7,0,0,1,1459,0h-4.46c-5.57,4.11-11.66,2.06-17.77,0h-15.47a2.68,2.68,0,0,1-2.42.09l1.31-.09H1418c-4.29,1.89-8.43,3.89-13,4a62.49,62.49,0,0,1-16.1-2.26c-2.5-.62-4.92-1.24-7.35-1.72h-15.38a32.7,32.7,0,0,1-8.27,0h-6.74c-.25.72-.72,1.4-2.47,2.23,2.67-1.27-12.64.22-9.77,1.24A100.31,100.31,0,0,0,1326.78,0h-6.6a6.49,6.49,0,0,1-2.39,3.69c.68.18.44.51-.73,1-1.43-.07-2-.24-1.7-.49-4.51-.09-9-.5-13.52-.84-.51.71-1.48,1-3.29.08a3.61,3.61,0,0,1-.52-.34c-1.09-.06-2.18-.14-3.27-.18a41.07,41.07,0,0,1-9.29-1.7c-1,1.16-3.25.51-3.81-1l-.72-.19h-7.52a16.52,16.52,0,0,1-2.11,1.17,3.41,3.41,0,0,1-1.65-.41,4.53,4.53,0,0,1-2.83,2.49h.36c7-1,7.21,5.87-2.56,2.51-2.68-.92-3.5-2.12-.52-2.45a63.17,63.17,0,0,1-7.28-.54c-.36.4-1.48.81-3.72,1.44-.4-.71-.17-1.33.66-1.87-1.28-.2-2.57-.42-3.86-.64a7.63,7.63,0,0,0-2,.93c-.91-.77-.91-1.2,0-1.29-3-.51-5.91-1-8.88-1.35h-8.91c-2.08.32-4.13.79-6.16,1.08a16.3,16.3,0,0,1,6.61,2c-5.09,3.76-9.78-2-13.82,3.6-4.34-.8-3.81-4.17-1.31-6.36-.19-.08-.39-.18-.58-.28h-4.41l-1.34,1.66c-1.64.41-4.58.05-5.81.69,1.73-1,2.15-1.72,1.8-2.35h-6.4c.21.26-.17.46-1.2.6l-.36-.6H1183a12.15,12.15,0,0,1-9.15,3.62,3.57,3.57,0,0,1-2.18-.36,8.82,8.82,0,0,1-3.24-1.74c-.67,1.33,1.4,2.77.73,4.35-1.44,3.51-8.48,4.1-4.14,8.36-3.5.51-12.78-1.46-14-.27,2.65-1.62.79-2.07,6.41-.33.93-2.27,8.44-4.18,4.42-5.75.07,0-3,.59-6.51,1.17,0-.57,0-1.13,0-1.7-1.94.85-3.32,1.46-2.16,2.05a66.1,66.1,0,0,1-7.51.86c.27.11,3,1.47,2.41,1.6-1.61.37-7.75-2.11-7.75-3.06.49,1.38,4.1-.74,3.93-1.2s-4.45-.46-4.47-1.07c-.06-2,6.06.23,6.57-.73.25-.47-.71-2.47-1.91-1.57l.49-.67c-6.22-1-12.45-2.57-18.76-2.83a4.79,4.79,0,0,0-.72.34c.73-.44-4.72.18-4.75.18-1.86.52.19,2.8-1.64,3.09s-3.38-2.18-3.72-4.34h-5.16l.06.08c2.13,3.1-7,5.65.88,8a8.59,8.59,0,0,0-2.51.05c-.25-1.35-4-.86-1.72-2.47-7,.64-3.88,3.81.05,3.14a4.21,4.21,0,0,0-.41.28c-6.91-.26-3.88,4.17-8.89,5.19.07-.72-.37-2.8-1.42-1.72-1.21.75-.82,1.33,1.14,1.73l0,0-.3.05c-7.67,3.61-.06-4.1-3-4.57,3.63-1.78,12.78-5.86,5.76-8.11A12.82,12.82,0,0,0,1105.46,0h-11.1c0,.23-.11.46-.18.68a7.92,7.92,0,0,1-1,2.78,4.32,4.32,0,0,1-1.61,1.79,2.57,2.57,0,0,1-1.94.74,4.34,4.34,0,0,1-.87-.18,3.66,3.66,0,0,1-.79-.2,4.37,4.37,0,0,1-1.06-.71,21,21,0,0,1-1.92,1c1.09,1.19.71,2.81-4.15,2.35-3.58-.33-5.65-3.6-8.32-4.75-1.44-.63-4.72-.71-7.2-1.3a11.27,11.27,0,0,1-3.66-.14,4.46,4.46,0,0,1-2.38-1.51,1.82,1.82,0,0,1-.87,1.88c4.06.6,3.49,6.6,9.36,7.12-.27-1.25,4.69-1.72,6.71-1.89-2.15,1.8,5,3.88,1.75,4.63-3,.66-4.94-1.31-7.45-1-4,.44-4.4,1.86-8.08,2.75-1.28-2.53-2.21-5.57-4.8-8.31a44.61,44.61,0,0,0-6.45-5L1048.27,0h-11.16c-2.19.51-4.41,1.15-4.75,2.61.34-.09,9.3-1.74,7.39-1.2a6.7,6.7,0,0,0,2.53,3.69c-3.41-2.23-15.31-3.65-10.64.49-1-1,5.82-1.54,4.13.6-3,3.71-2.65,0-9.26.92.61.92,3.12,1.54,2.73,2.5-.51,1.29-2.82.65-3.61,1.63a4.63,4.63,0,0,1,.07-.52,3.91,3.91,0,0,0-4.62,0c-1.5-.72-4.53-.73-6.27-1.57,10.56-1.51.08-1.46,0-3.89-.06-2.11,8.35-1.25,7-4.58-3.14,0-7.26,1.93-10.76,1.49A8.54,8.54,0,0,1,1015,0h-10.12c2.21.59,6.36,3.37,1.46,4-4.44.58-3.64-2.7-5.45-4h-1.07c-3.1,1-7.41,1-9.19,0H972.14c.07.21.36.46,1,.76,4.23,2,8.1-1.2,10.48.22,2.07,1.25,3.66,1.23,7.45,2.81,2.48,1,6.39,2,7.48,2.68-1.91-.42-5.71.79-6.72,1a6,6,0,0,0-4.5-2.62c-6.72,0-8.87,7.65-15.56,8.46,4.26.31,3.8,2.78,9.5,2.41s.08-.51,3-1.5c.27-.09,4.72-1.5,4.78-1.68.84-2.84-3.39-1.79-3.39-1.87-.74-1,7.13.18,7.78.17.63-.5,11.52-5.61,13.84-3.27-1.15-1.17-6.88,5.55-6.17,5.18-2.51,1.3-6.3.66-8,2.4,1.67.4-6.19-.33-4.83-.09a2.1,2.1,0,0,0,1.09,1.77H971.64c.85-1,3.11-1.75.29-3.37-3.28-.93-16.87,3.74-6.55-1.9,1.77-1,4.2.55,6.36-.43s4.53-3.42,5.62-4.44l-.11-.1c5.79.36,3.48-4.73-1.64-1.7A17.06,17.06,0,0,1,977,6.32l-1.56-1.41Q972.83,4,970,3.24c-.77,2.42-6,2.33-8.38,1.8C960,3.47,960,1.91,961.67.36a8.91,8.91,0,0,0,4.91,1.12A1.68,1.68,0,0,0,966.92,0h-8.83c-1,1.22.63,2.09-1.23,3.44-1,.73-3.57-.57-4.53.38A20.23,20.23,0,0,0,949.6,7.2,16.78,16.78,0,0,1,951.44,7c.17,1.75,1.33,4.64-.28,6.31-4.1-1.46-5.95-3.5-7.26-.45-2.79,6.43,7.15,2.65,12.8,3.14-.33.28-.7.54-1.07.8H942.56c-2.79-.72-6.32-.84-8.55,0h-11.2c.19-1.62-4.22-3.16-5.91-1.71s-1,1.58.12,1.71h-6.78c.26-1,3-1.75,2-2.74-2.49-2.56-4.47-.84-5,.91a1,1,0,0,0-.2-.05c0,.23,0,.41.06.55h0s0,.06,0,.09,0,0,0-.08c-.3.1-.75.22-1.32.35a2.19,2.19,0,0,1,1.32.07s0,0,0,.07a9.72,9.72,0,0,0-4.85.84h-12c-1.67-.51-2.7-.88-1.82-.79,7.64.77,8.84-2.78,6.9-2.79-1.63.29-2.29.91-2,1.84-1,0-4.53-2.82-6.72-1.88-1,.41-1.69,1.75-2.32,2,2.89-.89.28.65-1.55,1.66h-9.62a15.31,15.31,0,0,0-1.79-1h0c-4.52,1-8.91,1.21-10.13-1.32a11.32,11.32,0,0,0-5.84.47c-.25,0-1.11.09-2.32.24a2.9,2.9,0,0,0,2.3-.24,18.25,18.25,0,0,1-2.61,1.88H840.64c3.37-.48,9.15-1.26,12.4-1.64a6.92,6.92,0,0,1-3.17-2.52c-1.69.62-11,2.48-11.82,4.16H824.57c2.84-.6,5.67-2.15,4.07-4.57-.69,1.5-8.85,3.61-8.68,4.19a.64.64,0,0,0,.38.38H804.81a14.94,14.94,0,0,0-7.36,0h-10.6a4.32,4.32,0,0,1-.24-.67,15.82,15.82,0,0,1-2.22.08,4.32,4.32,0,0,0,1,.59h-25c7.6-6.91-3.1-.82-6-5.08-1.15-1.68,5.24-1.56,5.15-1.19-.32,1.51,2.71-3.22.53-1.8.24-.15-4.78-.76-4-1.37,2.83-2,9.45.8,12.46-1.73-.32-.09-4.11-1.85-5.16-2.33.22-.27,3.44-2.95,2.88-2.43,3.47,2,3.79,2.54,2.59,5,3.93,1.89-3.57,3.31-1.66,6-7.62,4.52,28.08,2.58,12.93-1,2.46-2,4.21-1.22,7.57-.31,5,1.35.92.55,1,2.53.08,1.53,12.66-1.16,12.88-3.64.19-1.82-8.14-6.48-11.38-7C790,3.79,788,4.74,785,4.83a13.67,13.67,0,0,1,5.82,2.61c-2.73.22-7.4-.71-9.34-.87a23.9,23.9,0,0,1-5.67,1c3.19,3.68-4,4-4,2.55,0-1.73,2.48-3.07,3.06-4.83,0-.06-.28-3.24-.58-5.25H763.61c-.07,1.19-.16,2.38-.23,3.28l-.15-.07c-.61-.22-5.5-2-4.8-2-5.16-.19.15,4.74-7.49,2.08.6-.68,1.33.25,1.08-1.36-1.27.28-1.66.68-1.23,1.21A19.89,19.89,0,0,0,747.49,5c-.13,0-6.58.88-5.89.71-.69.17-6.09,1.82-7.43,2-2.62.29-9.91-.9-11.32-.65-7.87,1.35,2.21,1,5.4,2.84s-1.12,5.15,6.55,5.93a2.23,2.23,0,0,0-.31,1H719.13c3-2-3.24-3.79-3.33-4.66a23,23,0,0,1,3.82-.7c-.24.27-4.23-4.13-4.58-4.63-.06-.1,4.07-3,3.38-2.69-9.08,1.32-5.29-2.06-13.56.87-1.16.42-1.59,1.83-2.52,2.68.53-.65-4.55,1.06-6.17,1.47,4,1.18,9-.84,12.59.39,3.06,1-.49,4.6,3.69,4.86-3.93-.55-6.69.95-10.4.22-2.65-.54-2.13-2.88-6.06-3.43-13-1.83-1,9.77-17.82,3.41,6.38-.57,5-3.91,12-3.59-.52-2.79-.38-5,2.81-6.15,4.59,1.46,5.3,1.4,8.9.38,1.24-.36,3.7-3.62,4.31-5.22h-8.29c-.8,1.26-1.07,2.58-6.47,3.27-2.92.38-5.16-1-7.89-.86-1.58.1-3.25,3.11-5.46,2.4-3.77-1.26,7.4-3.5,7.51-3.6a1.91,1.91,0,0,0,.8-1.21h-5.28c-1.11,2.4-2.85,4-5,3.48a44.32,44.32,0,0,0-5-.88c-.37,1.48-1,2.77-2.31,3.05-2.41.54-5.63-2.36-2.41-3.35a.16.16,0,0,0,0-.07c-1.89,0-3.79,0-5.69.1.44,1.55,1.78,3.65.14,4.06-.79-1-2.08-2.59-1.78-3.94-1.07.09-2.13.2-3.2.33.88.69,0,1-2.55.9-.18.17.09-.18.45-.63-6.32.91-12.64,2.38-19,3.64,1.87.79,3.54.87,2.42,2.8-.41.72-6.14,3.86-7.7,2-1.25-1.53,7-1.74,5.3-3.38a19.7,19.7,0,0,1-3.55-.7c-1.42.26-2.83.49-4.24.71a2.74,2.74,0,0,1-2.35.33c-2.26.29-4.51.51-6.77.61-5.43.22-10.88.19-16.33,0a11,11,0,0,1-3.66,3.23c-4.72.8-3-1.75,0-3.38a262.56,262.56,0,0,1-32.25-3.91,93.74,93.74,0,0,0-12.45-1.52c.17.53-.49,1-2,1.24-.46.44.19-.63,1.09-1.28a61.36,61.36,0,0,0-10.27.51c4.29,2.21,7.59,4.53,5.41,4.57-2.93,0-5.15-2.74-7.73-4.22l-.13,0c-2.79.5-5.57,1-8.36,1.46a.9.9,0,0,1,.52.76,32,32,0,0,1,5.52.81c-1.7,1.16-6.88-.44-8.53-1.22-1.32.16-2.64.3-4,.38-.28.4-1,.64-2.3.71a3.51,3.51,0,0,1,.91-.66,36.59,36.59,0,0,1-8.52-.64c-.81-.17-1.62-.37-2.43-.59-2.3-.06-4.15.15-5.14,1.88-1.79-3.42-7.32,0-5.62,2.57-.7-.48-2.37-.8-5.6-.84-5.29-.07-3.95-.55-5.46,1.65-1.39,2,4.07.24,5.14,1,1.71,1.32-20.75,5.54-20.8,5-.35-3.73,10.85-2.32,11.64-5.65,3.16.57,4.42.24,3.75-1a5.58,5.58,0,0,0-3.71.82c-.05-.22-7.85-4.77-4.2-4.49,6.52.51,5.56,1.88,11.4-.67a9.56,9.56,0,0,0,3.48-2.3c.8,3.73,8.6,2.54,7.67-.39l-1.27-.46-6.3.73c.9-1,1.15-1.72,3.3-1.8C499.21.86,497.82.41,496.43,0H472.89c-.69.52.47.48-1.31,2.1,10.4,1.37.87,7.62.71,11.09-4.31-1.62-1.23-4.47-2.1-6.16-1.72-.39-3.53-.71-5.35-1-1.53-.84-1.42-1.73.3-2.66-.43-.92-.16-2.18,0-3.4h-2.06c-1.39.17-2.79.33-4.19.48a5.1,5.1,0,0,1,3,2,14.3,14.3,0,0,1-2.29.77c-5.89,2.92-5.15-1.6-2.38-2.63q-5.72.54-11.46.85a28.65,28.65,0,0,1-6.47.25q-6.09.17-12.19,0a8.23,8.23,0,0,0-.66.65c-1.54,1.74,2,2.66-2.95,4.25,1-1.14-.24-3.14-1.74-5.07-2.78-.11-5.57-.25-8.34-.45A3.72,3.72,0,0,1,411,0h-3.79a18.58,18.58,0,0,1-8.57,3.29C396,2.21,396.46,1.11,397.25,0h-6.13c.51,2.1-1.45,3.18,2.65,5.51-1.4-.74-6,3.09-9.07,2.75-1.39-.15-5.1-2.9-6.3-3.44-4.27-1.9-10-3.3-15.08-4.82h-1.16c.14,2-8.3.66-9.74,0H327.59C321.75,2.49,315.93,5.28,310,6.21a.91.91,0,0,1-.34,1.37,4.23,4.23,0,0,1-2.27-1.09,21.76,21.76,0,0,1-5-.27c-7.73-1.35-16.13-8.43-23.86-5.5-5.34,2-9.51,2.76-14.1-.72h-4.18c-1,.93-4.17,2-7.56,1.28A7.06,7.06,0,0,0,254.15,0h-9.62c1.41.61,3,1.15,2.45,1.83s-5.49.52-5.24.53a2.56,2.56,0,0,0-.21-2c-7.45,1-15,1.37-22.36,1.77-21,1.14-42,2.8-63.07,3.26a194.11,194.11,0,0,1-31.21-1.53A99.77,99.77,0,0,1,113.5,1.51a1.1,1.1,0,0,1-.34.21,1,1,0,0,1-.33-.39C111.19.9,109.55.45,107.91,0H84.1c-.89,1.15-3.82,3.1-4.76,2.09C80,1,80.28.36,80.56,0H54.94C36.6,4.55,18.29,10.11,0,4V26.79ZM966.41,7.65c3.53,1.07.6,1.54,1.42,2C967.29,9.33,965.51,6.85,966.41,7.65Zm-10.39,6c1.65-1.11-2.45-5.8-4.45-6.67.6-.13,8-2,6.6.13-.74.32-1.5.61-2.29.91-1.21,1.37,6.58,1,5,1.05C961.86,10.13,960.63,14.05,956,13.64ZM796.89,10.32c-.27.67-1,.8-2.18.4C795,10.08,795.72,10,796.89,10.32ZM708.82,5.91c-1.48.64-2.31.51-2.49-.34C707.53,5.53,710.3,5.41,708.82,5.91ZM492.84.49A3.73,3.73,0,0,1,489.78.4,5.31,5.31,0,0,1,492.84.49Zm-14.22,9.67q2.79.91-.57,1.86C477.07,11.46,477.26,10.85,478.62,10.16Zm-271.83.21c-1.4,1.45-4.22,3.2-4.95,4.18C200.4,13.76,202.54,9.75,206.79,10.37Zm8.77,5.6c-.24-.54,0-1,.82-1.41a2.18,2.18,0,0,1,.63,2.23h-1.37C215.3,16.39,215.11,16,215.56,16Zm105.5-2.39a4.85,4.85,0,0,1,2.63.14A5.49,5.49,0,0,1,321.06,13.58ZM334.76,16a15.38,15.38,0,0,1,4.38.78h-7.35C330.88,16.13,331.19,15.68,334.76,16Zm13.7-7.68c-2.38-1-2.19-1.51.57-1.63.22.46.47.92.68,1.4A5,5,0,0,1,348.46,8.33ZM345,16.79a4.41,4.41,0,0,1,.69-.51,5,5,0,0,1,1.77.51Zm300.89,0h-6.32c.82-.64,6.1-1,8.79-1.77A23.75,23.75,0,0,1,645.9,16.79Zm27.76-3.26a4.44,4.44,0,0,0,.25-1.18c.54.48-.3,1.75-1,2.23C671.91,14.06,672.16,13.72,673.66,13.53ZM1083,16.16c1.29-.38,2-.23,2.1.45a4.73,4.73,0,0,1-.72.18h-.72A.85.85,0,0,1,1083,16.16Zm48.72-3.71c-1.61-.41-1.83-.86-.63-1.36.69.57,5.68,4,5.3,4.38a9.86,9.86,0,0,1-5.14-.13C1133.59,14,1134.79,13.69,1131.73,12.45Zm106.42.28c6.9.6,5.2,2.47,5.1,4.06h-3.5A9.33,9.33,0,0,1,1238.15,12.73Zm-27.25,4.06h-1.6a6.71,6.71,0,0,1,1.23-.2C1210.85,16.56,1210.93,16.65,1210.9,16.79ZM1324,15.18a21.58,21.58,0,0,1,5.07-.36C1328.61,16.06,1325.53,15.6,1324,15.18Zm9-2.63c.63.45.66.92,0,1.41C1331.41,13.63,1331.41,13.16,1333,12.55Zm9,.25a2.64,2.64,0,0,1,2.21-.07A1.72,1.72,0,0,1,1342,12.8Zm-36.84,4c.28-.59.85-1,2.07-.86a1.23,1.23,0,0,1,1.11.86Zm250.19-.92a5.36,5.36,0,0,1,4.34-.26C1558.66,16.63,1557.21,16.7,1555.38,15.87Zm243.84.92h-1.67a7.49,7.49,0,0,0,1-1.84C1799.15,15.57,1799.59,16.21,1799.22,16.79Zm119.55-1.45-1.77.94C1915.41,15,1915.85,14.5,1918.77,15.34Zm-4.39-4.4c1.06.46.87.79-.61,1C1912,11.54,1912.25,11.21,1914.38,10.94Zm-7.83,1.6c7.64.65,6.46,4.69,2.7,3.32-4.89-1.78-2.51-2-4-4.23C1899.94,3.28,1908.26,6.27,1906.55,12.54Zm-13.25-7.9c-.21.2,1.4.54-.46,1.39-1.31.58-2.13.61-2.48.07C1895.05,6.14,1891.59,6,1893.3,4.64ZM1883.84,9c-3.72.39-3.85.71-6.74.09C1879.25,6.34,1880.73,6.79,1883.84,9Zm-13.21,4.74c.92-.13,1.88-.24,2.81-.36C1876.33,13.08,1872.59,13.86,1870.63,13.73ZM1869.23,8l3.58,1.49C1867.9,10.84,1866.21,9.8,1869.23,8Zm-6-1.11c1.29.42,1.26,1-.13,1.84C1861.21,8.2,1861.24,7.58,1863.2,6.87Zm2,7.07c-1.17,3.45-4.67.8-5,.15A7.13,7.13,0,0,0,1865.22,13.94Zm-14.74-5c-2.34-.41-3.79-1.14-4.39-2.18C1848.44,6.85,1852,7.47,1850.48,8.89Zm-14.32.61a4.66,4.66,0,0,1,3.71.17A6.4,6.4,0,0,1,1836.16,9.5ZM1839,2.82c.24.67-.14,1.24-1.17,1.72C1834.27,3.93,1838.91,2.73,1839,2.82Zm-3.36,3.27c1.31.94,2.38,1.19,3.2.7-1.59,1.34-2.56,2.1-3.09,2.53C1834.57,8.26,1834.52,7.18,1835.66,6.09Zm-5,8c-.79-.53-.41-.84,1.09-.92C1832.63,13.72,1832.28,14,1830.67,14.06Zm-2.87-7.54c3.76,0,3.68,7.94-2,3.45h.05C1825.24,8.89,1822.64,6.48,1827.8,6.52ZM1825.56,10c-.76.75-1.91.9-3.43.42A9.65,9.65,0,0,1,1825.56,10Zm-2.34,2.31c3.28,1.42,1,3.46-1.68,4.51h-4.07A68,68,0,0,0,1823.22,12.28Zm-6.66-5.82c-.5.34-1,.69-1.5,1C1814.76,7.48,1815.28,6.33,1816.56,6.46Zm-9.36,6.81c1.63,1.6,1.66,2.15-1.34,3.34C1804.66,15.23,1805.09,14.12,1807.2,13.27Zm-7.7-3.6c.3.45-3.39,3.06-4.2,1.09a4.68,4.68,0,0,1-3,.08C1792.48,10.56,1797.5,10.12,1799.5,9.67Zm-12.28.36c.84.42.79.83-.09,1.22C1786.31,10.82,1786.34,10.43,1787.22,10Zm-13.43-7.47c1.06-.61-.87,1.64-1,2C1772.07,3.82,1772.39,3.14,1773.79,2.56Zm1.55,7.93L1770,8.67C1774.39,5.82,1775,10.38,1775.34,10.49Zm-8.16-1c1.12.75.88,1.41-.73,2C1765.11,12,1766.83,9.88,1767.18,9.52Zm-5.48,2.7c1.33.51,2,1.15,2,1.92C1763.74,13.88,1759.68,13.13,1761.7,12.22Zm-.55-7.3,2.38-.13c-.26.42-3.78,3.79-2.66,4.16C1759.42,8.5,1761.54,4,1761.15,4.92ZM1751.79,8c2.89-1.18,3.17,1.83,1.75,2.59h0C1751.53,9.9,1750.92,9,1751.79,8Zm1.78,2.75c.38,1-.39,1.59-2.41,1.72C1751.21,11.74,1752,11.16,1753.57,10.78Zm-24,.06c1.17.7.85,1.37-1,2C1727.33,12.09,1727.69,11.41,1729.6,10.84Zm-6.77-8.56c2.27-.2.14,2.67,0,2.76a32.41,32.41,0,0,0-3.19-1.19C1718.9,4.2,1720.59,2.47,1722.83,2.28Zm-1.64,11-2.07-.54C1721.22,12.19,1723.49,12,1721.19,13.32Zm-21.78-5.91c-1.47.37-2.43.1-2.84-.8C1698.24,6.16,1699.2,6.43,1699.41,7.41Zm-6.9,1.65c1,.69.11,2.66-1.8.82Zm-9.15.7a13.37,13.37,0,0,1-5-.84C1680.94,7.89,1683.47,8,1683.36,9.76ZM1661.8,6.43c.66.3.33,1.32-.46,2C1660.06,7.69,1660.22,7,1661.8,6.43Zm-11.35-2.38c-1.26.58-2,.44-2.32-.42C1649.88,3.1,1650.64,3.24,1650.45,4.05Zm-30.2,1.6c-1.16,0-2.31,0-3.47-.08C1617.83,5.61,1619.38,5.64,1620.25,5.65Zm-38.09.14c.27.34,0,.7-.33,1C1581.22,6.41,1581.3,6.08,1582.16,5.79Zm-1.58,3.75c1.36-.41,2.94,2.39,1.25,2.9C1579.79,12.08,1578.34,10.21,1580.58,9.54Zm-6.8-2.85c.85.52.57.86-.82,1C1572.06,7.11,1572.33,6.78,1573.78,6.69Zm-10.34,1.6c-6.23-.48-4.54-2.17-5.65-4C1562.56,3.77,1563.19,6.79,1563.44,8.29Zm-6.75,5.62a13.92,13.92,0,0,1-2.08.25A3.79,3.79,0,0,1,1556.69,13.91ZM1542.17,2.82c1.53.21,1.61.62.2,1.23C1540,3.88,1539.94,3.47,1542.17,2.82Zm1.21,8.23c1.31.52-1.81,2.87-2.44,2.81A14.16,14.16,0,0,1,1539,11.8,6,6,0,0,1,1543.38,11.05Zm-16.57-7c.16.82-.44,1-1.78.41C1525.17,3.72,1525.77,3.58,1526.81,4.05ZM1513,1.87a5.77,5.77,0,0,1-1.89.31C1511.72,2.09,1512.35,2,1513,1.87Zm-7,3.61a5.51,5.51,0,0,1-4.45-.09C1503.72,4.36,1505.63,5.48,1506,5.48Zm-5.29,2.83c2.89,1,1.8,4.23-2.3,3.78.33-.55.66-1.11,1-1.66C1498.07,9.07,1498.5,8.37,1500.72,8.31Zm-6.58-3.54c2,.36,2.24.86.84,1.48C1493.32,5.84,1493.05,5.34,1494.14,4.77Zm-14.06,3.76c4.94.13,4.89,1.22,1.91,2.82.38.86-.24,1.48-1.88,1.87C1479.81,13,1480.62,9.67,1480.08,8.53Zm4.94,7.93c-2.45.09-4.15.25-6.19.28A25.65,25.65,0,0,1,1485,16.46Zm-10.26-3.75c.16-.53.9-.82,2.24-.91C1477.89,11.46,1476.51,12.78,1474.76,12.71Zm-.3-2.42c-1-.45-1-.9-.06-1.37C1475.52,9.36,1475.55,9.83,1474.46,10.29Zm.74-7.19c-2,.94-3.31.82-3,2.27q-2.22-.42-2.13-1.5C1470.15,2.31,1473.34,2.62,1475.2,3.1Zm-14.61,2.17,4.15-.58a1.3,1.3,0,0,1,.44.63C1463.1,6.09,1460.32,7,1460.59,5.27Zm-.9,5.7a4.81,4.81,0,0,1-2.92-.52C1455.46,10.34,1461.49,10.7,1459.69,11Zm.87,5.82h-4.65a12.52,12.52,0,0,1-1.32-2.23l.22,0A20.47,20.47,0,0,1,1460.56,16.79Zm-5.81-15.06c-1.17.54-1.72.41-1.66-.36C1454.34.78,1454.92.9,1454.75,1.73Zm-5.79,7c-.4.51,0,1.44-.08,1.62C1446.18,10.13,1448.12,9.33,1449,8.78Zm3.09,5.29c-2.21.19-5,.37-5.79-.13C1444.6,12.85,1449,13.51,1452.05,14.07ZM1439.91,3c2.57.56-1.76,2.32-2.44,2.63C1437.71,4.28,1438.86,2.76,1439.91,3Zm-2.46,2.77a2.77,2.77,0,0,1,.87,1.7C1437.56,7.24,1437.34,6.55,1437.45,5.76Zm-5.54-3.37c1.55.55,1.47.88-.3,1C1429.4,2.78,1429.48,2.45,1431.91,2.39Zm-12.39,9.32c-2.71,3.35-6.25-2.65-6.28-2.7C1413.87,9.13,1418.86,12.54,1419.52,11.71Zm-20.39-.58c0,.95-.85,1-2.7.19A2.71,2.71,0,0,1,1399.13,11.13Zm-9.8-5.72a8.09,8.09,0,0,1,4.77,1.12c-1.66.31-3.38.61-5.1.86a5.4,5.4,0,0,1-2.89,2C1387.39,8.58,1387.66,6.14,1389.33,5.41Zm-9.63,5.95c-1.15,1-1.89,1-2.22.07C1378.66,10.45,1379.4,10.43,1379.7,11.36Zm-9.83,3.2c.9.22.9.54.05.95C1369,15.29,1369,15,1369.87,14.56Zm-5.82,2.23h0Zm-2.7-12.87c1.61-.23,1.63,1.57,1.39,3.07C1359.93,5.87,1359.45,4.84,1361.35,3.92Zm1.36,3.24a13.26,13.26,0,0,1-.43,1.73c-2.54.82-6.22,1.78-6.22,2.81C1353.8,11.21,1359.6,7.72,1362.71,7.16Zm-7.66-4.44c1.93.15,2.54.54,1.75,1.16C1354.67,3.83,1354.07,3.45,1355.05,2.72Zm-7,6.18c-4,.11-6.06-.47-6.2-1.71C1342.63,6.12,1352.24,7.15,1348.09,8.9Zm-12.58-2.17c2.13,1.57-8.44.89-9.37.38C1327,5.73,1334.14,5.71,1335.51,6.73ZM1325.93,4c.65,0-.49.88-1.61,1.23C1323.66,5.39,1325.3,4.15,1325.93,4Zm.24,8.54a8.24,8.24,0,0,0-2.41,2.56l-2.23-.74C1322.32,13,1323.85,12.41,1326.17,12.54Zm-8.24-1.82c-1.12.44-1.86.33-2.24-.29A1.48,1.48,0,0,1,1317.93,10.72Zm-2,3.75c2.4.77,0,3-1.61,1.32C1314.82,15.36,1315.36,14.91,1315.91,14.47Zm-7.07-2.25c-1.83-.74-1.2-4.17-.9-3Q1311.71,10.78,1308.84,12.22Zm.3-7.82c1.31.84,1,3.29-3.38,2.39C1304.47,5.71,1305.62,4.92,1309.14,4.4Zm-11.91,1.51c1.16-.18,2.35-.33,3.56-.44,2.86.09-4,7.71-6.8,6C1294.93,12.06,1297.85,6.22,1297.23,5.91Zm-21.74,5.17c.6.19,12.44-3.42,10.51,1.13.24-.55-5.68,1.73-6,1.89-1-2.33-9.34-1.15-10.54.51-1.55-.39-2.4-1-2.57-1.88C1266.51,8.07,1273.19,10.4,1275.49,11.08Zm-15-2.62c.87.56.57,1-.85,1.19C1258.37,8.81,1258.65,8.42,1260.48,8.46Zm-7.89.48c3.16-1.37,6.63,2.28,3,2.59C1253,11.4,1252,10.53,1252.59,8.94Zm.37,7.85h-3.29c-.3-.37,0-.77,1.94-1.45C1252.72,15.82,1253.16,16.29,1253,16.79ZM1251.28,13l-2.35.74a2,2,0,0,1-1.42-.71A2.71,2.71,0,0,1,1251.28,13Zm-4.2-4.88a9.78,9.78,0,0,1-5.43.1C1244,7.24,1244.63,6.93,1247.08,8.12Zm-16.33-5c2.71-4,6.17.44,9.09,1.87.17-1.14,1.26-2,3.28-2.66.94.6-2.63,3.29-2,5.73-3.74-1-7.57-3.26-10.34-4.94Zm-6.38,11.26c1.58.11,1.88.46.9,1C1223.74,15.33,1223.44,15,1224.37,14.4Zm-1.94-5.71c-.19-.17-3.58,3.15-3.77,3.12l-2.24-.87C1214.73,12,1221,7.53,1222.43,8.69Zm-7.78.62a5.55,5.55,0,0,1-4.56,1C1210,10.24,1210.88,6.5,1214.65,9.31Zm-6-2.08c-1.36.94-2.4.82-3.08-.38C1207.31,6,1208.35,6.11,1208.7,7.23ZM1203,9.83c5.59.48,1.55,4.67,1.36,3C1202,12.08,1201.55,11.07,1203,9.83Zm-7.78,3.36c1.15-.65,1.69-.51,1.66.43C1195.63,14.12,1195.08,14,1195.19,13.19ZM1183.45,10c4.29,2.19,3.61,1.64.41,3.42C1181.3,11.73,1180.56,12.08,1183.45,10Zm-12,4.6c2.61-1.16,4,.51,4.7,2.16h-3.46C1172.08,16,1171.2,14.75,1171.47,14.63Zm-10.86.74c1.06.22,0,1-.24,1.42h-.15C1159.81,16.31,1159.91,15.83,1160.61,15.37Zm-17,.5a1,1,0,0,1,.29.92h-1.22A1.75,1.75,0,0,1,1143.63,15.87Zm-6-13a4.42,4.42,0,0,1-3.49.41C1134.46,2.27,1135.61,2.13,1137.6,2.83Zm-7.1,4.41a17.3,17.3,0,0,0,4.23-.63c-.1-.18.47,1.9-.79,1.55-4.64-1.23-2.59-.43-6-1A2.87,2.87,0,0,1,1130.5,7.24Zm-4.12,3.61a2.1,2.1,0,0,1-2.67.19A2.51,2.51,0,0,1,1126.38,10.85Zm-4.86,2.33c1.86.63,2.65,1.51,2.38,2.63C1120.89,17.84,1120.24,14.27,1121.52,13.18Zm-11.08-8.66c.22-.73.93-.85,2.1-.39C1112.33,4.78,1111.61,4.92,1110.44,4.52Zm6.85,4.56c0,.63-6.52,4.34-6.33,3.24C1111,11.93,1115.93,9.65,1117.29,9.08Zm-15.2,6.62c1.48.08,1.78.37.87.89C1101.35,16.57,1101.08,16.28,1102.09,15.7Zm-22.46-1.48c.93-.71,2.18-3.11,3.77-3.46,4.77-1.08,3.13,1.42,1.58,2.61a33.14,33.14,0,0,0-6.66,1.78,8.13,8.13,0,0,1-4.75.51C1076.63,14.83,1077.61,15.77,1079.63,14.22Zm-24,2.11c.66.1.86.26.75.46h-9.49l.17-.14A56.2,56.2,0,0,1,1055.66,16.33Zm-4.17-10.64c-.25,1-1.37,1.61-2.43,2.43a18.83,18.83,0,0,1-2.12-2A8.93,8.93,0,0,1,1051.49,5.69Zm-11.74,3.9c5-.25,6.58.59,13.18,2.94-5.18,1.89-6.6,1.39-8.89-1.77C1039.67,13.22,1039.67,9.59,1039.75,9.59Zm-1,3.33c4,1.23,5,2.35,3,3.33-2.46.12-4.31-.33-5.48-1.33C1036.2,14,1037.05,13.28,1038.74,12.92Zm-13.26-.49c0-.19,0-.37.07-.55,7.45,0,5.78.19,4.32,2.09C1028,16.33,1024.85,12.25,1025.48,12.43Zm-6.71,4.36h-5.93C1015.1,15.18,1019.21,14.7,1018.77,16.79Zm-14.44-2.29c1.82.49,4.77,2.33-.25,2.13a.85.85,0,0,0,0,.16h-.14A16,16,0,0,0,1004.33,14.5ZM750.8,3.14l.12.13-.18-.07Zm.62,3.93c1.48.48,1.5,1,0,1.53C750.49,8.2,750.49,7.69,751.42,7.07Zm-12.69,8.72c0-.79,4-6.62,6.2-6,1.69.42.76,3,3.19,2.9a2.53,2.53,0,0,0,1.38-.75c-.08,1,1.34,1.59-2.69,3.29,6.57,0,6.88.58,5.56,1.61h-5.25C745.37,15.08,744.3,13.79,738.73,15.79Zm-38.47,1h-1.45c-.27-.05-.54-.11-.83-.15C698.58,16.66,699.36,16.71,700.26,16.79ZM685.62,6.59c4.5.42.16,1.2.57,1.33a31.35,31.35,0,0,0-4.44-.51C682.86,7.2,683.61,6.41,685.62,6.59Zm-6,.52a4.34,4.34,0,0,0,.68.21l-2.5-.12C678.43,7.16,679,7.12,679.64,7.11Zm-3.28.2c.54.78,3.72,3,2.41,3.1-2.22.11-4.59-2.67-9.45-2.16C671.56,7.94,673.92,7.55,676.36,7.31Zm-5.51,9.23a4.46,4.46,0,0,1,.94.25H659.58a1.22,1.22,0,0,0,.32-.48c-.19,0-1,.24-2.09.48h-6.47c0-1.09,5.28-1.48,5.7-1.75C662.91,17.9,664.2,15.43,670.85,16.54Zm-12-7.89c-.08,0,3.33,1,4.87,1.35.07.28,1,.9,1,.93-8.62-.22-15.81.63-8.71-4.45C657.43,7.28,658.5,8.52,658.87,8.65ZM647.21,5.83c.25-.19,4.64.79,4.59.78a3.41,3.41,0,0,1,4-.29C653.22,6.72,644.43,7.94,647.21,5.83Zm1.67,5.88c.91,1.88,3.52,2,1,2.15-.4-1-1.66-1.33-3.26-1.28A7.27,7.27,0,0,0,648.88,11.71Zm-5-3.66a1.81,1.81,0,0,0,1.06,1.38C643.65,9,642.5,8.56,643.86,8.05ZM643,11.22a4.72,4.72,0,0,0-.93,1.51,18.77,18.77,0,0,0,1.91.13c-2.61.4-5.29,1-6.25.44C635.83,12.1,641.65,11.17,643,11.22Zm-10.22,5.57h-3.24a23,23,0,0,1-5.84-2C628.84,12.76,631.79,14,632.82,16.79Zm-25.29-5.42c4.66-.34,8.82,3.27,7.75,5.42H612c2.27-3-3.27-6.14-7.12-2,6,.93,2.77,1.67,0,2h-2.55A5.23,5.23,0,0,1,607.53,11.37Zm-10.59,4.06c1.83.43,2.13.73.85.93C595.9,16,595.63,15.68,596.94,15.43Zm-13.29-6c2.34-1.63,6,2.94,5.24,2.15a5.67,5.67,0,0,0-1.92,0C584.4,11.23,583.26,10.54,583.65,9.43Zm1.56,3c3.36.49,5.6,1.43,6.71,2.84a13.48,13.48,0,0,0-4.76,1.48h-2.75c-.57-.16-1.27-.38-2.18-.7C577.13,14.3,580.64,14.13,585.21,12.47Zm-9.83,2.36c-1.61-.79-2.4-1.78-2.43-3C579,9.35,577.26,13.71,575.38,14.83Zm-3.3-4.54a2.38,2.38,0,0,1-2.73-.37C570.55,9.11,571.45,9.24,572.08,10.29Zm-6.53-3.78c-2.73.42-4.2.22-4.42-.64C561.79,5,566.86,6.7,565.55,6.51ZM542,9.84c-.55.93-1,.91-1.23-.07C541.29,8.84,541.7,8.86,542,9.84Zm2.1,3.34c-2.15.22,10.24.08,5.43-1a7.25,7.25,0,0,0,3.82-.68c.52.1,1.37,4.33,9.5,2.06,1.17,1.58,1,2.61.1,3.19h-6.08a10.55,10.55,0,0,1-3.6-1.83c-.41,1.64-10.34,1.84-13.18.87a4.32,4.32,0,0,1,.93-2.76,5.3,5.3,0,0,1-4.21-.52C540,12.19,540.71,13.53,544.07,13.18Zm-10.94,1.75c-1.59,1.52-2.6,1.77-3,.75A2.77,2.77,0,0,1,533.13,14.93Zm-2.49-4.07c-.54.69-1.17.63-1.83-.19C529.61,10.08,530.21,10.15,530.64,10.86Zm-10.12,1.82c-1.5.51,4.86,2-2.43,2.82a1.67,1.67,0,0,1,.8,1.29H518C516.92,15.78,519,13.21,520.52,12.68Zm-18.61-2.56a4,4,0,0,0,1,.7c8.68-1.06-1.93,3.92,5.58,6h-3.92c-1.07-.77-.52-2.41-.23-3.43-4.67,0-2.79.09-6.66,1.49C497.13,14.05,502.57,11.62,501.91,10.12ZM447,5.88a17.29,17.29,0,0,0,4,3.59,14.69,14.69,0,0,1-6.52.12C444.4,8.27,445.27,7,447,5.88Zm0,7.4c-.34-.67.09-1.32,1.29-1.92C450.11,12.09,450,13.25,447,13.28Zm-12.5-1.75c1.18,0,4.45-.21,6.66-.13,2.73.11,2.21,2,5.78,2,4.59,3.43,10.29-1.57,9-4.11,7.15-.5,5,1.65,8.49,3.55-.09-.06-13.75,3.55-17.07,4h-.7s0,0,0,0a.08.08,0,0,0,0,0H443c-1.82-1.38-6-2.12-8.18-1.09,1.33-.88,1.8-.14,1.51-3.29C428,13.35,429.08,11.41,434.54,11.53ZM423.65,9.15c2.35-.89,5.13-2.58,8.44-2,1.47.25-8.14,5-7.78,4.81-.88.4-3.36-3.1-3.41-3.16C421.82,8.9,422.72,9,423.65,9.15ZM417.4,2.47c.66.44.6.79-.19,1.06C416.5,3.08,416.58,2.73,417.4,2.47Zm-3.63,3c.71.2,3.2,1.35,2.49,1.17C414,6.87,412.65,6.47,413.77,5.43Zm-2.29,4.14c-2,1.12-4.87,1.2-7,1.17C405.76,10.31,405,9.3,411.48,9.57ZM407.77,6c-.17.08-1.07,1.49-4.4.51A7.07,7.07,0,0,1,407.77,6Zm-1.45,8c.25.4.49.8.74,1.18a17.08,17.08,0,0,1,7.34-.74c-.44.42-4.94,2.42-6.09,2-3.35-1.26-9.9-1.19-12.5-3.93S405.17,16.31,406.32,14ZM380.47,9.77c5.46,1.48,5,4.9-.9,5.66.9.48.82.88-.25,1.17-.13-1.06.44-2.14-2.86-1.37a1.75,1.75,0,0,1-1.24,1.56h-2c-2.77-.62-6-3.22-3.65-4.35C376.24,9.16,384.51,18.43,380.47,9.77ZM363,5.06c-2.58,1-5.36.48-6-.66C359.66,3.75,361.69,4,363,5.06Zm-7.83,5.75c-.11.16,10.59-3.56,12.06-4.72a3.31,3.31,0,0,1,2.43,3.13,11.69,11.69,0,0,0-5.57-1c-.05,2.13-3.57,6.65-2.67,8.33a1.51,1.51,0,0,0,.12.2h-3.82c1.34-1.75,2.24-2.36-2.63-2.7.71.88-.14,1.89.49,2.7h-3.34A43.18,43.18,0,0,1,355.2,10.81Zm-4.48-7.44c-.87,1.26-2.43,1.69-4.66,1.31C347.09,3.45,348.65,3,350.72,3.37ZM347.2,14c-1.36.91-2.29,1-2.75.11A2.17,2.17,0,0,1,347.2,14ZM344.5,2.86c-.79.65-1.45.6-1.91-.15C343.22,1.85,343.87,1.9,344.5,2.86Zm-.76,5.63c-1.16.77-2.78.88-4.84.38A5.18,5.18,0,0,1,343.74,8.49Zm-.88-2.8-1.64.64a23.24,23.24,0,0,1-2.73-.67A20,20,0,0,1,342.86,5.69Zm-4.09,3.24.05,0c2.69,1.05,5.61,2.64.85,3.36-4.5.69-5.3-2.39-7.67-2.1-2.1.26-.93,2.5-1.83,3.34-1.55-.64-3.25-3.62-1.94-4.41C328.42,8.67,336.39,9,338.77,8.93ZM324.85,3.85c1.23-.39,7.29,2.4,6.36,3.21l-5.93-1C325.42,6.14,322.94,4.43,324.85,3.85Zm.38,6.51c.49,1.17,0,2.29-1.49,3.33-1.23-1.07-2.19-1.92-2.93-2.58A10.82,10.82,0,0,1,325.23,10.36Zm-4.59-5.21c-1.19.54-1.8.4-1.8-.4C320.18,4.15,320.78,4.28,320.64,5.15ZM304.13,16.63a1.41,1.41,0,0,1,1.35.16h-1.61A.41.41,0,0,1,304.13,16.63ZM300.83,14c.43.79-1.12,1.24-1.15,1.14-.3-1.65,1.7-.07.9-2.88a17.09,17.09,0,0,1,2-.11C303.31,13.05,304,14,300.83,14Zm2.27-7c-.36.56-1,.46-1.78-.32l-2.4-.36C299.93,5.63,301.19,6.71,303.1,6.92Zm-.36,2.7c1.25,1.5-3.49.67-4.07.36A4.28,4.28,0,0,1,302.74,9.62ZM294.42,4.9c-.85.61-1.4.64-1.62.08C293.27,4.22,293.79,4.19,294.42,4.9ZM289,3.2c.55.63.5,1.84-1.88,1.68C283.85,6.24,288.36,3.64,289,3.2Zm-1.44,12.29-2.18-.79C286.39,12.81,288.3,14.74,287.54,15.49Zm-7.4-13.37c1.2.21,1.42.6.65,1.12C278.8,3,278.59,2.6,280.14,2.12ZM274.9,4.43c.79.57.47.89-1,1C273.18,4.87,273.51,4.54,274.9,4.43Zm-.79,3.71c2.29-.78,3.57-.33,4.12,0a17.59,17.59,0,0,1-7.32,2.46A15.18,15.18,0,0,1,274.11,8.14Zm-7.34-2.27a5.64,5.64,0,0,1-3.22-1.27C265,4.2,270.48,7,266.77,5.87Zm-4.31,8.6c1.58,0,2.26.4,2,1.22C263,15.75,262.26,15.36,262.46,14.47ZM250.91,3.28c1.53.53,1.28,1-.74,1.47C249.22,4.2,249.46,3.7,250.91,3.28Zm1.78,7.51a12.44,12.44,0,0,0-4.54-2C257.68,7.17,251.93,10,252.69,10.79Zm-16.3-9.54c2.29.33,2.62.84,1,1.56C235.35,2.42,235,1.9,236.39,1.25Zm-3.28,4.87c-.92.48-1.63.44-2.15-.11C231.89,5.34,232.62,5.38,233.11,6.12Zm-6.93-2.63c1.89.75,1.69,1.33-.54,1.73C223.92,4.58,224.11,4,226.18,3.49Zm-8.35.18Q215,5.91,212.34,4.83C212.56,4,216.47,3.15,217.83,3.67Zm-10.51,4.8c.56.44.21,1.11-.49,1.86C205.44,9.4,205.61,8.78,207.32,8.47ZM204.7,5.15c-2.48.8-3.49-.09-5.54-1-1.17.37-1.83.74-2.86.23C201.1,3.51,200.17,2.94,204.7,5.15ZM198,16.69a.36.36,0,0,0,0,.1h-1.66c-.32-.31-.61-.66-.84-.92C197,15.64,197.89,15.9,198,16.69ZM191.6,12c-.44.87-1.15.91-2.13.14C190.4,11.11,191.11,11.07,191.6,12Zm-1,2.86a20,20,0,0,0-5.21,1.21c-1.23-.82-2.43-1.65-3.63-2.48C184,13.07,189,14,190.59,14.9Zm-20.77-4.19c-1.2,1,.55,1.82-4.48.36C166.22,10.09,167.69,10,169.82,10.71Zm-47-3.61c-1.31.11-7.56,1.06-7.7.15C116.54,6.06,121.48,4.81,122.82,7.1ZM113,1.78a15.9,15.9,0,0,1-2.72.27A4.51,4.51,0,0,1,113,1.78Zm-2.75,7.14c0,1.11.44,1.17.27,1.14a15.18,15.18,0,0,0-2.34-.59A14,14,0,0,1,110.21,8.92ZM106,6.19a7.88,7.88,0,0,1-6.2-.8C103.33,4.2,101.91,4.13,106,6.19ZM91.49,2.82c2.92.28.52,2.34-.71,2.79,0,1.13-.55,1.32-1.8.58C92.17,5.47,91.52,4.46,91.49,2.82Zm-5-.23c-1.31.53-2,.38-2.1-.42C85.54,1.51,86.25,1.66,86.49,2.59Zm-2.26,9.13c.73,1.55-2.51,4.85-5.46,3.13C80.22,13.76,81.5,12.14,84.23,11.72ZM65.2,2c2.27.63,2.18,1-.24,1.14C64.73,2.85,63.52,1.49,65.2,2Zm-.08,5.91c-2.27.66-4.78.49-6.28.88A18.06,18.06,0,0,1,65.12,7.94Zm.58,6.62S55,14.14,56.91,15C50.63,13.68,67.14,12.5,65.7,14.56ZM25.49,13.44c-1.12.42-1.74.28-1.91-.43C24.81,12.58,25.46,12.72,25.49,13.44Zm124.68,3.27.33.08h-.07Z"></path>
        </g>
    </g>
</svg>