<svg viewBox="0 0 1920 26.79"
  xmlns="http://www.w3.org/2000/svg">
  <defs>
    <style>.cls-1{fill:#a31521;}</style>
  </defs>
  <g data-name="Layer 2" id="Layer_2">
    <g data-name="Layer 1" id="Layer_1-2">
      <path class="cls-1" d="M768.32,19.55c-2.21-.26-8.55,0-10.15,1.2-2.89,2.19,2.75,2.2,3.21,4.22-.93-.66-3.44-1.94-3.87-2.31-1.71,1.66-2.4,3.22-4.08,4.13h15.11c-1.29-1.07-.26-3.18-.06-4,2.16,3.42,6,2.33,4.72-.62C772.46,20.34,773.83,20.2,768.32,19.55Z"></path>
      <path class="cls-1" d="M1151.44,21.17h0S1151.42,21.16,1151.44,21.17Z"></path>
      <path class="cls-1" d="M1156.84,23.61l-.07,0Z"></path>
      <path class="cls-1" d="M1129.55,24.45c-4,3.19-12.74-2.21-14.41-.65-2.27,2.11,4.63,1.5,5.95,3h18.32c0-.09.13-.18.18-.28a4,4,0,0,0,.43.28h3.17c-1.34-1.56-6.85-3.51-8-4C1133.45,24.3,1133.42,25.64,1129.55,24.45Z"></path>
      <path class="cls-1" d="M1099.58,24.82c-.46.28-9.28-3.08-10.39,2h12c2.8-.05,5.36-.14,5.31-.34a.57.57,0,0,1,.22.34h10.4A36.53,36.53,0,0,0,1107,23.93C1098.62,23.13,1104.36,21.78,1099.58,24.82Z"></path>
      <path class="cls-1" d="M1034.43,24.94a7,7,0,0,1-4.18-1.61,11.29,11.29,0,0,1,4.64-1.86s2.16-5.08-1.36-5.16c-.74,0-6.63,2.14-6.91,1.66a2.31,2.31,0,0,0-1.12-1.9c.17,0-2.21,0-2.12.06.16,1.33-9.42,5.81-7.65,6.43.85.05,1.7.09,2.55.1,3.16,2.56.62,5-1.29,2.92a10.6,10.6,0,0,0-3,1.21h12.33c.6-1,.47-2.31-.87-4-1.23,0-5.94-.13-7.1-.13.88-1.69,4.31-1.8,7,0,1.71,1.33,3.84,3,5.58,4.13h8.82C1038.85,26,1035,26.16,1034.43,24.94Z"></path>
      <path class="cls-1" d="M1038.71,22.9c2.65,2.74,10-1.87,14.09.3-5.75.39-9,1.89-9.35,3.59H1055c4.9-1.41,10.32-2.28,8.68-3.66C1058.75,19,1044,23,1038.71,22.9Z"></path>
      <path class="cls-1" d="M1083.2,23.74q-5-.16-10-.22a22,22,0,0,0-.79-2.23,31.37,31.37,0,0,0-3.65.54c0,.05,1.66,3.06,1.85,3.37-1.49-.59-3.18.41-4.36,1.59h17.34A5.35,5.35,0,0,0,1086,25C1083,25.35,1083.45,23.81,1083.2,23.74Z"></path>
      <path class="cls-1" d="M1098.9,20.34c1.58-.23,14.93-1.28,14.41-2.38a4.51,4.51,0,0,1-1.72-1.13c-1.56.35-14.28,1.36-10.13-1.49-3.21-.11-7-.43-10.29-.68,3.69,2.16-3.87,4.94-8.32,5.46,1.85.59,1.91,1.18.22,1.77-.37-.22-.7-.41-1-.58-.23.59,0,.81.81.63l-.08,0c1.31-.36,1.42.23.35,1.77-.16.06,5.27-2.23,4.83-2q.71,1.32,3.85-.91C1093.79,19.2,1096.14,19.05,1098.9,20.34Z"></path>
      <path class="cls-1" d="M994.26,13.38c-9.45.35,1.41,2.3,1.69,2.71,3.65,5.26,6.14,9.58,8.92.64C1005.83,15.58,996.57,13.29,994.26,13.38Z"></path>
      <path class="cls-1" d="M1201.88,22.8c-3.31.5-4.53.45-3.69-.15h0c0-.06,0,0-.24.07l0,0c-2.17,1.14-2.31,3.29-4.93,4h13.15l.55-.2C1203.92,25.38,1201.79,24.09,1201.88,22.8Z"></path>
      <path class="cls-1" d="M1184.46,20.71c-1.42,1.6-2.21,4.95,2.81,5.42C1186.81,24.77,1187.22,22,1184.46,20.71Z"></path>
      <path class="cls-1" d="M1018.87,12.81c-2.84.84-3.46,2.1-1.91,3.81C1019.25,15.39,1020.89,14.22,1018.87,12.81Z"></path>
      <path class="cls-1" d="M944.52,21.87l-.13.07C944.55,22.07,944.62,22.08,944.52,21.87Z"></path>
      <path class="cls-1" d="M1048,17.33c-1.77-2.23-5.51.72-6.24.84C1039.62,18.54,1047,20.11,1048,17.33Z"></path>
      <path class="cls-1" d="M1052.39,15.63c-2.29,1.28-2,.7,2.65,2.83C1055.15,18.51,1059,16,1052.39,15.63Z"></path>
      <path class="cls-1" d="M1069.88,14.07a4.34,4.34,0,0,0-1.28,3.53C1076.79,17,1071.74,16.33,1069.88,14.07Z"></path>
      <path class="cls-1" d="M1047.64,13.91a4.94,4.94,0,0,0,5-2.81l-3.94-.07C1048.58,11.25,1046.89,13.83,1047.64,13.91Z"></path>
      <path class="cls-1" d="M1116.42,13.2c1.53-.21-4-3.67-6.33-1.32C1110.47,12.06,1114.48,13.47,1116.42,13.2Z"></path>
      <path class="cls-1" d="M980.17,16.41l-1.31,1.35c.52-.11,3.11-.08,4.39-.36C982.74,16.76,981.7,16.42,980.17,16.41Z"></path>
      <path class="cls-1" d="M1192.53,23.27a26.83,26.83,0,0,1,3.81.26c-.81.51.92-.47,1.6-.8C1195.81,21.56,1191.5,21.31,1192.53,23.27Z"></path>
      <path class="cls-1" d="M1192.76,23.63a2.15,2.15,0,0,1-.23-.36C1192.15,23.31,1192.23,23.43,1192.76,23.63Z"></path>
      <path class="cls-1" d="M1107.66,13.48c2.09.09,2.32-1.05,2.21-1.71C1109.32,11.93,1103.51,13.3,1107.66,13.48Z"></path>
      <path class="cls-1" d="M1109.87,11.76h0C1109.92,11.76,1109.93,11.75,1109.87,11.76Z"></path>
      <path class="cls-1" d="M1058.45,14.91c3-.29,1.66-1.69.35-2.56C1058.56,13.41,1057.82,13.39,1058.45,14.91Z"></path>
      <path class="cls-1" d="M1111.89,17c.49-.47,3.77-1.27.76-2.11A1.82,1.82,0,0,0,1111.89,17Z"></path>
      <path class="cls-1" d="M978.86,17.76,971,19.14C973.7,19.64,977.19,19.14,978.86,17.76Z"></path>
      <path class="cls-1" d="M987.46,25.52c-.9-.26-1.78-.5-2.65-.76C983.25,25.38,986.28,26,987.46,25.52Z"></path>
      <path class="cls-1" d="M970.67,24.36c.17,1,1.12,1.13,2.84.49C973.35,23.9,972.39,23.75,970.67,24.36Z"></path>
      <path class="cls-1" d="M950,23.54c-.43,1.35.77,1.91,3.66,1.67C952.5,24.29,953.18,23.62,950,23.54Z"></path>
      <path class="cls-1" d="M894.17,22.49c.3,1.09,1.28,1.22,2.89.38Q896.16,21,894.17,22.49Z"></path>
      <path class="cls-1" d="M1187.5,20.64c1.71,1.12,3,1.14,4.06,0C1189.87,19.92,1188.5,19.91,1187.5,20.64Z"></path>
      <path class="cls-1" d="M1069,21.71a12.11,12.11,0,0,0-4.88-1.16C1065,21.6,1066.36,21.84,1069,21.71Z"></path>
      <path class="cls-1" d="M1060.33,19.2c-2.13.23-2.54.64-1.14,1.24Q1062.25,20,1060.33,19.2Z"></path>
      <path class="cls-1" d="M1063.63,17.51c1.35.92,1.83,1.68,1.48,2.29l1.6-1.18C1066,18.36,1063.19,17.28,1063.63,17.51Z"></path>
      <path class="cls-1" d="M1066.88,18.66l.08,0c2-.39,2.54-.77,1.64-1.1-1.82.35-2.4.69-1.76,1l-.09-.05,0,0C1066.85,18.66,1066.92,18.68,1066.88,18.66Z"></path>
      <path class="cls-1" d="M1065.11,19.8l-1,.75A2,2,0,0,0,1065.11,19.8Z"></path>
      <path class="cls-1" d="M1215.14,14.13c1.42.39,4.42.72,4.42-.66C1217.87,13.56,1216.78,13.06,1215.14,14.13Z"></path>
      <path class="cls-1" d="M989.34,13.12c-1.45-.93-2.67-.93-3.71,0C986.09,14.45,987.32,14.45,989.34,13.12Z"></path>
      <path class="cls-1" d="M1133.25,10.91c-1.17.53-2,.18-2.64,1.51,2.66.24,4.46-.15,2.68-1.49l.19.08-.09-.34C1133.09,10.73,1133,10.8,1133.25,10.91Z"></path>
      <path class="cls-1" d="M988.19,23.13c.09.8.77.93,2,.4C990.1,22.88,989.42,22.75,988.19,23.13Z"></path>
      <path class="cls-1" d="M981.83,22c1.26,0,2-.26,2.19-.85C985.49,20.75,978.67,21.6,981.83,22Z"></path>
      <path class="cls-1" d="M1138.53,20.21s.13,1.58.11,1.63C1143,22.58,1139.13,20.44,1138.53,20.21Z"></path>
      <path class="cls-1" d="M990.4,20.68c1.05.72,1.93.66,2.49.08A22.35,22.35,0,0,1,990.4,20.68Z"></path>
      <path class="cls-1" d="M993.19,20.34a1.67,1.67,0,0,1-.3.42C993.58,20.72,993.69,20.59,993.19,20.34Z"></path>
      <path class="cls-1" d="M994.09,18.7c-1.42.27-1.64.85-.71,1.74C993.68,19.91,996,19.18,994.09,18.7Z"></path>
      <path class="cls-1" d="M1039.55,15.55c-.36,0-.81-.1-1.38-.19C1038.05,15.86,1038.53,15.92,1039.55,15.55Z"></path>
      <path class="cls-1" d="M1039.55,15.55c.74.08,1,0,.8-.11,1.86-1.18,3.39-1.94,1.4-3.51q-4.29,1-1.41,3.49l-.21-.11Z"></path>
      <path class="cls-1" d="M1080.67,16.62c-.17.34-1.37.91-.14,1.08C1080.56,17.35,1080.61,17,1080.67,16.62Z"></path>
      <path class="cls-1" d="M1082.12,21.31a5.42,5.42,0,0,1,.73-1.19C1081.43,20.54,1081.47,20.85,1082.12,21.31Z"></path>
      <path class="cls-1" d="M1135.2,22.75c.27,0,2.81-.13,3.44-.91C1134.65,22.53,1135.14,21,1135.2,22.75Z"></path>
      <path class="cls-1" d="M1014.21,11a3.35,3.35,0,0,0,.54-.12Z"></path>
      <path class="cls-1" d="M926.87,15.87c-.63-.29-1.86-2.16-4.51-1.14C923.26,15.68,924.76,16.07,926.87,15.87Z"></path>
      <path class="cls-1" d="M1477.35,11.83c-3.14,1.06-3.38,1.3-.74,2.57Q1479.07,13.17,1477.35,11.83Z"></path>
      <path class="cls-1" d="M837.51,25.17a9.2,9.2,0,0,0,4-1.73c-1.16-.69-4.94-.38-7.29-.39a12.22,12.22,0,0,1,.76,1.16,8.84,8.84,0,0,1,.57,1.2c.36,0,.68-.07,1-.11,0,.7.58,1.14,1.34,1.49H848A17.88,17.88,0,0,1,850.33,25,97.9,97.9,0,0,0,837.51,25.17Z"></path>
      <path class="cls-1" d="M701.61,23.45a8,8,0,0,0-1.72.08l1.37,1c.75-.52,1-.86.74-1l1.82-.86C701.87,22.37,701.15,22.63,701.61,23.45Z"></path>
      <path class="cls-1" d="M1536.42,22.69c-.2.7.3,1.29,1.53,1.76-1.18-.38-.58-.07,1.79.89C1546.49,24.84,1537.7,21.71,1536.42,22.69Z"></path>
      <path class="cls-1" d="M1411.76,21l1.07,1.12C1414.63,21.06,1414.28,20.7,1411.76,21Z"></path>
      <path class="cls-1" d="M1369.32,12.13l-2.81-.19C1367.19,12,1368.59,12.48,1369.32,12.13Z"></path>
      <path class="cls-1" d="M1460.16,23.65a12.89,12.89,0,0,0,1.06,1C1462.09,24.08,1461.74,23.74,1460.16,23.65Z"></path>
      <path class="cls-1" d="M0,0V20H.26a8.82,8.82,0,0,1,2.81.95A39.27,39.27,0,0,1,7.2,18.47c.28.91-.94,2.09-2.62,3.27a22.65,22.65,0,0,0,4.3,2.19c2.81.88,5.56.58,8.3.21-.18-.6.21-1.4,2.8-1.12a2.61,2.61,0,0,1-.76.85c3-.37,6.05-.48,9.07,1.22,3.21,1.81,5.55.33,8.89.05,3.57-.29,7.13,0,10.69.05a39.63,39.63,0,0,1,5.75.51c2.66-2.19,5.37-4.13,8.11-4,1-.81,1.88-1.43,1.89-1.44,6.44,1.64,7.18,3.21,13.81,4.17-3.67,2.17-7.78.62-11.31-.44.19.2.38.39.57.61A9.81,9.81,0,0,1,68,26.79H81.42a6.55,6.55,0,0,1,.73-.85,7.2,7.2,0,0,1,9.17-1.23c1.07.58,2.1,1.4,3.15,2.08H96a7.58,7.58,0,0,1,3.82-3.92c2.06-.88,3.84.4,5.66,1.48.11-1.13,4.68-1.29,6.66-.28a22.16,22.16,0,0,1-4.64,1.29l.49.14c2.89.68,6-.37,9-.91a3.86,3.86,0,0,1-.53-.11c.27-.64,1-.78,2.16-.42a1.19,1.19,0,0,1-.33.34c.33,0,.66-.08,1-.09,7.18-.31,14.24.91,21.37,1.07,3.37.07,7.2-.95,10.47.67-.88-1.08.85-3.21,3.62-2.19.47,1.06-.68,1.85-3.31,2.36a8.63,8.63,0,0,1,.87.57h6.55a5.19,5.19,0,0,1,2.52-2.6A17.49,17.49,0,0,1,171,23.06a17.14,17.14,0,0,1,3.06-.55c.16.15-.81.4-2,.69,4.6.81,9.16,2.68,13.77,3.59h9.06a21.26,21.26,0,0,1,7.51,0h7.47a12.28,12.28,0,0,1,1-2c3.29-5.52,9.68-3.81,13.43-1a5.72,5.72,0,0,1,2,3.05h.14a22.38,22.38,0,0,0,5.09-.8c3.27-1,6.14-2.26,9.5-1.16a42.15,42.15,0,0,1,4.1,2h3.12a6.52,6.52,0,0,0,1.3-.85,3.18,3.18,0,0,1,4-.39l.52,0c-.07.08-.15.12-.22.19a5.58,5.58,0,0,1,1,1h20.93c-4.48-3.63,13.18-2.95,15.31-.67a4.8,4.8,0,0,1,3-3.25,19.33,19.33,0,0,1,9.4-.37c3.69.68,6.71-.21,10.35-1,2.89-.59,5.09,0,7.59,2.51a12.68,12.68,0,0,0,4,2.74h6.31a6.85,6.85,0,0,1,1-1.29c1-1,2.73-1.62,3.88-.87a8.22,8.22,0,0,0,1.87.9c.3,0,.6.11.9.12a2.69,2.69,0,0,1,.74.14c.94-2.08,2.34-3.52,3.88-3.23,2,.38,4-.14,6.07-.29a9.17,9.17,0,0,1,6.48,2.18c1.67-.1,2.24.49,4,.86-.72-.1-2.16-.26-3.44-.39a5.92,5.92,0,0,1,1.28,1.87h16.22A4,4,0,0,1,378,24.32c3.47,0,6.8,1.47,10.19,2.47h3.36c1.6-.63,6-2.21,5.44-.66a1.29,1.29,0,0,1-1,.66h5.8c1.93-.36,3.86-.75,5.83-1a11.64,11.64,0,0,1,4.4.47,2.12,2.12,0,0,0-2.77-1.71h-.07c.26-.08.4-.3.56-1,1.15,1.54,6.42,1.56,3.22,3,.24.08.49.15.73.24h3.61a8.49,8.49,0,0,1,4.6-2.49c-.73-.12-1.47-.28-2.25-.45,2.69-.17,5.54-.29,7.3.29a9.73,9.73,0,0,1-2.55.38c.6.16,1.2.38,1.79.6a4.25,4.25,0,0,0,2.17.52c-1-.31-1.33-.77-1.06-1.36a2,2,0,0,1,1.31,1.38,1.81,1.81,0,0,1,.23,0c2.35-1.43,4.68-2.78,7.39-2.69a3.45,3.45,0,0,1,2,.76c2.29.18,4.47,1.09,6.83,1.78,2.63.76,4.79.11,7.41-.51,2.38-.57,4.8-1,7.12.4A6.75,6.75,0,0,1,461,26.79h4.46c5.57-4.11,11.66-2.06,17.77,0h15.47a2.64,2.64,0,0,1,2.42-.1l-1.31.1H502c4.29-1.89,8.43-3.9,13-4a62.94,62.94,0,0,1,16.1,2.27c2.5.62,4.92,1.24,7.35,1.72h15.38a32.24,32.24,0,0,1,8.27,0h6.74c.25-.72.72-1.41,2.47-2.23-2.67,1.26,12.64-.22,9.77-1.25a100.33,100.33,0,0,0,12.14,3.48h6.6a6.49,6.49,0,0,1,2.39-3.69c-.68-.18-.44-.51.73-1,1.43.08,2,.25,1.7.5,4.51.09,9,.49,13.52.84.51-.72,1.48-1,3.29-.08a2.94,2.94,0,0,1,.52.33c1.09.07,2.18.15,3.27.19a40.53,40.53,0,0,1,9.29,1.7c1-1.16,3.25-.51,3.81,1l.72.19h7.52a15.38,15.38,0,0,1,2.11-1.17,3.29,3.29,0,0,1,1.65.41,4.5,4.5,0,0,1,2.83-2.49h-.36c-7,1-7.21-5.88,2.56-2.51,2.68.92,3.5,2.12.52,2.45a63.17,63.17,0,0,1,7.28.54c.36-.4,1.48-.81,3.72-1.44.4.7.17,1.32-.66,1.87,1.28.2,2.57.41,3.86.64a8,8,0,0,0,2-.93c.91.77.91,1.2,0,1.28,3,.52,5.91,1,8.88,1.36h8.91c2.08-.33,4.13-.79,6.16-1.08a16.46,16.46,0,0,1-6.61-2c5.09-3.76,9.78,2,13.82-3.6,4.34.79,3.81,4.17,1.31,6.35l.58.29h4.41l1.34-1.66c1.64-.41,4.58-.05,5.81-.69-1.73.95-2.15,1.71-1.8,2.35h6.4c-.21-.26.17-.47,1.2-.6l.36.6H737a12.2,12.2,0,0,1,9.15-3.63,3.57,3.57,0,0,1,2.18.37,8.94,8.94,0,0,1,3.24,1.73c.67-1.32-1.4-2.76-.73-4.34,1.44-3.51,8.48-4.1,4.14-8.36,3.5-.52,12.78,1.46,14,.27-2.65,1.62-.79,2.07-6.41.33-.93,2.27-8.44,4.17-4.42,5.75-.07,0,3-.6,6.51-1.17,0,.56,0,1.13,0,1.69,1.94-.84,3.32-1.45,2.16-2a63.84,63.84,0,0,1,7.51-.86c-.27-.12-3-1.48-2.41-1.6,1.61-.38,7.75,2.11,7.75,3.06-.49-1.39-4.1.74-3.93,1.2s4.45.46,4.47,1.06c.06,2-6.06-.23-6.57.73-.25.48.71,2.47,1.91,1.58,0,0-.2.28-.49.67,6.22,1,12.45,2.57,18.76,2.83a4.79,4.79,0,0,0,.72-.34c-.73.44,4.72-.18,4.75-.18,1.86-.52-.19-2.8,1.64-3.1s3.38,2.18,3.72,4.35h5.16l-.06-.08c-2.13-3.1,7-5.65-.88-8a8.56,8.56,0,0,0,2.51-.06c.25,1.36,4,.87,1.72,2.48,7-.64,3.88-3.81,0-3.15a2.9,2.9,0,0,0,.41-.27c6.91.26,3.88-4.18,8.89-5.19-.07.72.37,2.8,1.42,1.72,1.21-.76.82-1.33-1.14-1.73l0,0,.3,0c7.67-3.61.06,4.1,3,4.57-3.63,1.78-12.78,5.85-5.76,8.11a12.69,12.69,0,0,0-5.61,1.72h11.1c.05-.23.11-.46.18-.68a7.85,7.85,0,0,1,1-2.78,4.25,4.25,0,0,1,1.61-1.79,2.62,2.62,0,0,1,1.94-.75,6.39,6.39,0,0,1,.87.18,4.36,4.36,0,0,1,.79.2,5,5,0,0,1,1.06.71,19,19,0,0,1,1.92-.95c-1.09-1.19-.71-2.82,4.15-2.35,3.58.33,5.65,3.59,8.32,4.75,1.44.62,4.72.71,7.2,1.3a11.27,11.27,0,0,1,3.66.14,4.46,4.46,0,0,1,2.38,1.51,1.82,1.82,0,0,1,.87-1.88c-4.06-.6-3.49-6.61-9.36-7.12.27,1.24-4.69,1.72-6.71,1.88,2.15-1.79-5-3.88-1.75-4.62,3-.66,4.94,1.31,7.45,1,4-.44,4.4-1.86,8.08-2.76,1.28,2.54,2.21,5.57,4.8,8.31a44,44,0,0,0,6.45,5.06c.46.24.83.43,1.14.61h11.16c2.19-.51,4.41-1.16,4.75-2.61-.34.09-9.3,1.74-7.39,1.2a6.7,6.7,0,0,0-2.53-3.69c3.41,2.23,15.31,3.64,10.64-.49,1,1-5.82,1.54-4.13-.6,3-3.72,2.65,0,9.26-.92-.61-.93-3.12-1.54-2.73-2.5.51-1.3,2.82-.66,3.61-1.64a4.81,4.81,0,0,1-.07.53,3.91,3.91,0,0,0,4.62,0c1.5.72,4.53.73,6.27,1.56-10.56,1.51-.08,1.46,0,3.9.06,2.11-8.35,1.25-7,4.58,3.14,0,7.26-1.93,10.76-1.5A8.54,8.54,0,0,1,905,26.79h10.12c-2.21-.6-6.36-3.37-1.46-4,4.44-.58,3.64,2.7,5.45,4h1.07c3.1-.95,7.41-1,9.19,0h18.49c-.07-.22-.36-.46-1-.76-4.23-2-8.1,1.2-10.48-.22-2.07-1.25-3.66-1.23-7.45-2.82-2.48-1-6.39-2-7.48-2.67,1.91.42,5.71-.8,6.72-1a6.06,6.06,0,0,0,4.5,2.62c6.72,0,8.87-7.66,15.56-8.46-4.26-.31-3.8-2.78-9.5-2.41s-.08.51-3,1.5c-.27.09-4.72,1.5-4.78,1.68-.84,2.84,3.39,1.79,3.39,1.86.74,1-7.13-.17-7.78-.16-.63.5-11.52,5.61-13.84,3.26,1.15,1.18,6.88-5.54,6.17-5.17,2.51-1.31,6.3-.67,8-2.41-1.67-.39,6.19.34,4.83.09A2.1,2.1,0,0,0,930.69,10h17.67c-.85,1-3.11,1.75-.29,3.36,3.28.94,16.87-3.74,6.55,1.91-1.77,1-4.2-.55-6.36.42s-4.53,3.42-5.62,4.45l.11.1c-5.79-.36-3.48,4.72,1.64,1.7A15.93,15.93,0,0,1,943,20.46l1.56,1.42c1.74.6,3.55,1.16,5.42,1.66.77-2.42,6-2.33,8.38-1.79,1.69,1.56,1.69,3.13,0,4.68a8.91,8.91,0,0,0-4.91-1.12,1.68,1.68,0,0,0-.34,1.48h8.83c1-1.23-.63-2.09,1.23-3.44,1-.73,3.57.57,4.53-.38a20.64,20.64,0,0,0,2.73-3.38,16.78,16.78,0,0,1-1.84.21c-.17-1.75-1.33-4.64.28-6.31,4.1,1.46,5.95,3.5,7.26.45,2.79-6.43-7.15-2.65-12.8-3.14.33-.28.7-.54,1.07-.8h13.07c2.79.72,6.32.84,8.55,0h11.2c-.19,1.61,4.22,3.16,5.91,1.71s1-1.58-.12-1.71h6.78c-.26,1-3,1.75-2,2.74,2.49,2.56,4.47.84,5-.91l.2.05c0-.23,0-.41-.06-.55h0s0-.06,0-.09,0,.05,0,.08a11.81,11.81,0,0,1,1.32-.36,2.23,2.23,0,0,1-1.32-.06s0-.05,0-.07a9.72,9.72,0,0,0,4.85-.84h12c1.67.51,2.7.87,1.82.79-7.64-.77-8.84,2.78-6.9,2.79,1.63-.29,2.29-.91,2-1.84,1-.05,4.53,2.81,6.72,1.88,1-.41,1.69-1.75,2.32-2-2.89.89-.28-.65,1.55-1.66h9.62a13.85,13.85,0,0,0,1.79,1h0c4.52-1,8.91-1.21,10.13,1.32a11.43,11.43,0,0,0,5.84-.47c.25,0,1.11-.09,2.32-.24a2.9,2.9,0,0,0-2.3.23,18.47,18.47,0,0,1,2.61-1.87h12.09c-3.37.48-9.15,1.25-12.4,1.64a6.85,6.85,0,0,1,3.17,2.52c1.69-.62,11-2.48,11.82-4.16h13.48c-2.84.59-5.67,2.15-4.07,4.57.69-1.5,8.85-3.61,8.68-4.19a.64.64,0,0,0-.38-.38h15.53a15.06,15.06,0,0,0,7.36,0h10.6a4.32,4.32,0,0,1,.24.67,17,17,0,0,1,2.22-.09,4.71,4.71,0,0,0-1-.58h24.95c-7.6,6.91,3.1.82,6,5.08,1.15,1.68-5.24,1.56-5.15,1.19.32-1.51-2.71,3.21-.53,1.79-.24.16,4.78.77,4,1.37-2.83,2.05-9.45-.8-12.46,1.74.32.09,4.11,1.85,5.16,2.33-.22.27-3.44,2.95-2.88,2.43-3.47-2-3.79-2.54-2.59-5-3.93-1.9,3.57-3.32,1.66-6,7.62-4.52-28.08-2.58-12.93,1-2.46,2-4.21,1.21-7.57.3-5-1.34-.92-.55-1-2.52-.08-1.53-12.66,1.15-12.88,3.64-.19,1.82,8.14,6.48,11.38,7C1130,23,1132,22.05,1135,22a13.55,13.55,0,0,1-5.82-2.62c2.73-.21,7.4.72,9.34.87a25,25,0,0,1,5.67-1c-3.19-3.67,4-4,4-2.54,0,1.72-2.48,3.07-3.06,4.82,0,.07.28,3.25.58,5.26h10.68c.07-1.19.16-2.39.23-3.28l.15.07c.61.21,5.5,2.05,4.8,2,5.16.19-.15-4.73,7.49-2.08-.6.69-1.33-.24-1.08,1.37,1.27-.28,1.66-.68,1.23-1.22a19.2,19.2,0,0,0,3.3-1.86c.13,0,6.58-.87,5.89-.7.69-.17,6.09-1.82,7.43-2,2.62-.3,9.91.9,11.32.65,7.87-1.36-2.21-1-5.4-2.84s1.12-5.15-6.55-5.93a2.27,2.27,0,0,0,.31-1h15.36c-3,2,3.24,3.79,3.33,4.66a23,23,0,0,1-3.82.7c.24-.27,4.23,4.12,4.58,4.62.06.11-4.07,3-3.38,2.69,9.08-1.32,5.29,2.06,13.56-.87,1.16-.41,1.59-1.82,2.52-2.67-.53.65,4.55-1.07,6.17-1.47-4-1.18-9,.83-12.59-.39-3.06-1,.49-4.6-3.69-4.87,3.93.55,6.69-.94,10.4-.21,2.65.53,2.13,2.88,6.06,3.43,13,1.83,1-9.77,17.82-3.41-6.38.56-5,3.91-12,3.59.52,2.79.38,5-2.81,6.14-4.59-1.46-5.3-1.39-8.9-.37-1.24.35-3.7,3.61-4.31,5.22h8.29c.8-1.26,1.07-2.58,6.47-3.27,2.92-.39,5.16,1,7.89.86,1.58-.11,3.25-3.12,5.46-2.4,3.77,1.26-7.4,3.5-7.51,3.6a1.89,1.89,0,0,0-.8,1.21h5.28c1.11-2.4,2.85-4,5-3.48a46.65,46.65,0,0,0,5,.88c.37-1.49,1-2.77,2.31-3.05,2.41-.54,5.63,2.35,2.41,3.35l0,.07c1.89.05,3.79,0,5.69-.1-.44-1.55-1.78-3.65-.14-4.07.79,1,2.08,2.59,1.78,3.95,1.07-.09,2.13-.2,3.2-.33q-1.32-1.05,2.55-.9c.18-.17-.09.18-.45.62,6.32-.91,12.64-2.37,19-3.63-1.87-.8-3.54-.87-2.42-2.81.41-.71,6.14-3.85,7.7-1.95,1.25,1.53-7,1.74-5.3,3.38a18.71,18.71,0,0,1,3.55.7c1.42-.26,2.83-.5,4.24-.71a2.71,2.71,0,0,1,2.35-.34c2.26-.29,4.51-.5,6.77-.6,5.43-.22,10.88-.19,16.33,0a11.1,11.1,0,0,1,3.66-3.24c4.72-.79,3,1.76,0,3.39a260.64,260.64,0,0,1,32.25,3.91,95.42,95.42,0,0,0,12.45,1.52c-.17-.54.49-.95,2-1.25.46-.43-.19.64-1.09,1.29a61.36,61.36,0,0,0,10.27-.51c-4.29-2.21-7.59-4.54-5.41-4.57,2.93,0,5.15,2.74,7.73,4.22l.13,0c2.79-.51,5.57-1,8.36-1.47a.87.87,0,0,1-.52-.76,31.1,31.1,0,0,1-5.52-.8c1.7-1.16,6.88.43,8.53,1.22,1.32-.17,2.64-.3,4-.38.28-.41,1-.64,2.3-.71a3.74,3.74,0,0,1-.91.65,36.06,36.06,0,0,1,8.52.65c.81.17,1.62.37,2.43.59,2.3.06,4.15-.15,5.14-1.88,1.79,3.42,7.32-.06,5.62-2.57.7.48,2.37.8,5.6.84,5.29.06,4,.55,5.46-1.65,1.39-2-4.07-.25-5.14-1-1.71-1.32,20.75-5.54,20.8-5,.35,3.73-10.85,2.32-11.64,5.65-3.16-.57-4.42-.25-3.75,1a5.53,5.53,0,0,0,3.71-.81c0,.21,7.85,4.77,4.2,4.49-6.52-.51-5.56-1.88-11.4.67a9.56,9.56,0,0,0-3.48,2.3c-.8-3.74-8.6-2.54-7.67.39l1.27.46,6.3-.73c-.9,1-1.15,1.71-3.3,1.8,1.38.48,2.77.93,4.16,1.34h23.54c.69-.53-.47-.48,1.31-2.11-10.4-1.37-.87-7.62-.71-11.09,4.31,1.63,1.23,4.47,2.1,6.16,1.72.4,3.53.72,5.35,1,1.53.84,1.42,1.73-.3,2.66.43.92.16,2.18,0,3.4h2.06c1.39-.17,2.79-.34,4.19-.48a5.1,5.1,0,0,1-3-2,14.3,14.3,0,0,1,2.29-.77c5.89-2.92,5.15,1.6,2.38,2.63,3.81-.36,7.63-.66,11.46-.85a28.06,28.06,0,0,1,6.47-.25q6.09-.16,12.19,0a6.85,6.85,0,0,0,.66-.64c1.54-1.75-2-2.67,3-4.26-1,1.15.24,3.14,1.74,5.07,2.78.12,5.57.26,8.34.46a3.63,3.63,0,0,1,2.37,1.14h3.79a18.7,18.7,0,0,1,8.57-3.3c2.64,1.08,2.22,2.19,1.43,3.3h6.13c-.51-2.11,1.45-3.18-2.65-5.51,1.4.74,6-3.09,9.07-2.76,1.39.16,5.1,2.91,6.3,3.45,4.27,1.89,10,3.3,15.08,4.82h1.16c-.14-2,8.3-.67,9.74,0h24.83c5.84-2.49,11.66-5.29,17.58-6.22-.31-.45-.25-.94.34-1.37a4.16,4.16,0,0,1,2.27,1.1,21.76,21.76,0,0,1,5,.26c7.73,1.36,16.13,8.44,23.86,5.5,5.34-2,9.51-2.75,14.1.73h4.18c1-.94,4.17-2,7.56-1.29a7.36,7.36,0,0,0-1.47,1.29h9.62c-1.41-.61-3-1.15-2.45-1.84s5.49-.51,5.24-.52a2.56,2.56,0,0,0,.21,2c7.45-1,15-1.37,22.36-1.77,21-1.15,42.05-2.81,63.07-3.26a194.11,194.11,0,0,1,31.21,1.53,99.77,99.77,0,0,1,11.39,2.38.82.82,0,0,1,.34-.21,1.1,1.1,0,0,1,.33.38c1.64.44,3.28.88,4.92,1.34h23.81c.89-1.15,3.82-3.11,4.76-2.09-.68,1.09-.94,1.72-1.22,2.09h25.62c18.34-4.55,36.65-10.11,54.94-4V0ZM953.59,19.14c-3.53-1.08-.6-1.54-1.42-2C952.71,17.46,954.49,19.93,953.59,19.14Zm10.39-6c-1.65,1.11,2.45,5.8,4.45,6.67-.6.13-8,2-6.6-.13.74-.32,1.5-.62,2.29-.91,1.21-1.37-6.58-1-5-1.05C958.14,16.65,959.37,12.74,964,13.15Zm159.13,3.31c.27-.66,1-.79,2.18-.39C1125,16.71,1124.28,16.83,1123.11,16.46Zm88.07,4.42c1.48-.64,2.31-.52,2.49.34C1212.47,21.26,1209.7,21.37,1211.18,20.88Zm216,5.42a3.69,3.69,0,0,1,3.06.09A5.4,5.4,0,0,1,1427.16,26.3Zm14.22-9.67c-1.86-.62-1.67-1.23.57-1.86Q1443.42,15.6,1441.38,16.63Zm271.83-.21c1.4-1.46,4.22-3.2,5-4.18C1719.6,13,1717.46,17,1713.21,16.42Zm-8.77-5.61c.24.54,0,1-.82,1.41A2.17,2.17,0,0,1,1703,10h1.37C1704.7,10.4,1704.89,10.81,1704.44,10.81Zm-105.5,2.4a5,5,0,0,1-2.63-.14A5.25,5.25,0,0,1,1598.94,13.21Zm-13.7-2.43a15.77,15.77,0,0,1-4.38-.78h7.35C1589.12,10.66,1588.81,11.11,1585.24,10.78Zm-13.7,7.68c2.38,1,2.19,1.51-.57,1.63-.22-.46-.47-.93-.68-1.4A4.56,4.56,0,0,1,1571.54,18.46ZM1575,10a4.41,4.41,0,0,1-.69.51,5,5,0,0,1-1.77-.51ZM1274.1,10h6.32c-.82.64-6.1,1-8.79,1.76A25.36,25.36,0,0,1,1274.1,10Zm-27.76,3.26a4.44,4.44,0,0,0-.25,1.18c-.54-.49.3-1.76,1-2.23C1248.09,12.72,1247.84,13.07,1246.34,13.26ZM837,10.62c-1.29.39-2,.23-2.1-.45a4.62,4.62,0,0,1,.72-.17h.72A.84.84,0,0,1,837,10.62Zm-48.72,3.72c1.61.41,1.83.85.63,1.35-.69-.56-5.68-4-5.3-4.38a9.86,9.86,0,0,1,5.14.13C786.41,12.83,785.21,13.09,788.27,14.34Zm-106.42-.29c-6.9-.59-5.2-2.46-5.1-4.05h3.5A9.29,9.29,0,0,1,681.85,14.05ZM709.1,10h1.6a6.71,6.71,0,0,1-1.23.2C709.15,10.22,709.07,10.14,709.1,10ZM596,11.61a22.12,22.12,0,0,1-5.07.36C591.39,10.72,594.47,11.18,596,11.61Zm-9,2.63c-.63-.45-.66-.92,0-1.41C588.59,13.15,588.59,13.63,587,14.24ZM578,14a2.6,2.6,0,0,1-2.21.06A1.73,1.73,0,0,1,578,14Zm36.84-4c-.28.59-.85,1-2.07.85a1.21,1.21,0,0,1-1.11-.85Zm-250.19.92a5.32,5.32,0,0,1-4.34.25C361.34,10.16,362.79,10.09,364.62,10.92ZM120.78,10h1.67a7.49,7.49,0,0,0-1,1.84C120.85,11.22,120.41,10.58,120.78,10ZM1.23,11.44c.6-.3,1.17-.63,1.77-.93C4.59,11.76,4.15,12.29,1.23,11.44Zm4.39,4.41c-1.06-.46-.87-.8.61-1C8,15.25,7.75,15.58,5.62,15.85Zm7.83-1.6c-7.64-.66-6.46-4.69-2.7-3.32,4.89,1.78,2.51,2,4,4.23C20.06,23.51,11.74,20.52,13.45,14.25Zm13.25,7.9c.21-.21-1.4-.54.46-1.4,1.31-.57,2.13-.6,2.48-.06C25,20.65,28.41,20.83,26.7,22.15Zm9.46-4.36c3.72-.38,3.85-.7,6.74-.09C40.75,20.44,39.27,20,36.16,17.79Zm13.21-4.73-2.81.35C43.67,13.71,47.41,12.93,49.37,13.06Zm1.4,5.75-3.58-1.49C52.1,16,53.79,17,50.77,18.81Zm6,1.11c-1.29-.42-1.26-1,.13-1.84C58.79,18.59,58.76,19.2,56.8,19.92Zm-2-7.07c1.17-3.46,4.67-.81,5-.15A7.08,7.08,0,0,0,54.78,12.85Zm14.74,5c2.34.41,3.79,1.14,4.39,2.17C71.56,19.93,68,19.32,69.52,17.9Zm14.32-.62a4.65,4.65,0,0,1-3.71-.16A6.31,6.31,0,0,1,83.84,17.28ZM81,24c-.24-.67.14-1.25,1.17-1.72C85.73,22.85,81.09,24.06,81,24Zm3.36-3.27C83,19.75,82,19.51,81.14,20c1.59-1.34,2.56-2.1,3.09-2.53C85.43,18.53,85.48,19.61,84.34,20.7Zm5-8c.79.54.41.85-1.09.93C87.37,13.07,87.72,12.75,89.33,12.72Zm2.87,7.55c-3.76,0-3.68-7.94,2-3.45h0C94.76,17.9,97.36,20.3,92.2,20.27Zm2.24-3.45c.76-.75,1.91-.91,3.43-.42A9.65,9.65,0,0,1,94.44,16.82Zm2.34-2.32c-3.28-1.42-1-3.45,1.68-4.5h4.07A70.66,70.66,0,0,0,96.78,14.5Zm6.66,5.83c.5-.35,1-.69,1.5-1C105.24,19.31,104.72,20.46,103.44,20.33Zm9.36-6.81c-1.63-1.6-1.66-2.15,1.34-3.35C115.34,11.56,114.91,12.67,112.8,13.52Zm7.7,3.6c-.3-.45,3.39-3.07,4.2-1.09a4.62,4.62,0,0,1,3-.08C127.52,16.23,122.5,16.67,120.5,17.12Zm12.28-.36c-.84-.43-.79-.84.09-1.22C133.69,16,133.66,16.36,132.78,16.76Zm13.43,7.46c-1.06.62.87-1.64,1-2C147.93,23,147.61,23.65,146.21,24.22Zm-1.55-7.92L150,18.11C145.61,21,145,16.41,144.66,16.3Zm8.16,1q-1.68-1.14.73-2C154.89,14.76,153.17,16.91,152.82,17.27Zm5.48-2.7c-1.33-.52-2-1.16-2-1.92C156.26,12.9,160.32,13.66,158.3,14.57Zm.55,7.3-2.38.12c.26-.41,3.78-3.78,2.66-4.15C160.58,18.29,158.46,22.74,158.85,21.87Zm9.36-3.12c-2.89,1.18-3.17-1.83-1.75-2.58h0C168.47,16.88,169.08,17.75,168.21,18.75ZM166.43,16c-.38-1,.39-1.59,2.41-1.72C168.79,15.05,168,15.62,166.43,16Zm24-.06c-1.17-.7-.85-1.37,1-2C192.67,14.7,192.31,15.37,190.4,16Zm6.77,8.55c-2.27.21-.14-2.66,0-2.75,1,.44,2.08.83,3.19,1.19C201.1,22.58,199.41,24.31,197.17,24.5Zm1.64-11,2.07.53C198.78,14.59,196.51,14.81,198.81,13.47Zm21.78,5.91c1.47-.37,2.43-.1,2.84.8C221.76,20.62,220.8,20.36,220.59,19.38Zm6.9-1.65c-1-.69-.11-2.66,1.8-.82Zm9.15-.7a13,13,0,0,1,5,.84C239.06,18.9,236.53,18.82,236.64,17Zm21.56,3.33c-.66-.3-.33-1.32.46-2C259.94,19.1,259.78,19.75,258.2,20.36Zm11.35,2.38c1.26-.58,2-.44,2.32.42C270.12,23.68,269.36,23.54,269.55,22.74Zm30.2-1.6a30.92,30.92,0,0,1,3.47.08C302.17,21.18,300.62,21.15,299.75,21.14ZM337.84,21c-.27-.35,0-.7.33-1C338.78,20.38,338.7,20.7,337.84,21Zm1.58-3.76c-1.36.41-2.94-2.38-1.25-2.89C340.21,14.71,341.66,16.58,339.42,17.24Zm6.8,2.86c-.85-.53-.57-.86.82-1C347.94,19.68,347.67,20,346.22,20.1Zm10.34-1.6c6.23.48,4.54,2.17,5.65,4C357.44,23,356.81,20,356.56,18.5Zm6.75-5.62a15.35,15.35,0,0,1,2.08-.26A3.69,3.69,0,0,1,363.31,12.88ZM377.83,24c-1.53-.21-1.61-.62-.2-1.23C380,22.9,380.06,23.31,377.83,24Zm-1.21-8.24c-1.31-.51,1.81-2.87,2.44-2.8A13.2,13.2,0,0,1,381,15,6,6,0,0,1,376.62,15.73Zm16.57,7c-.16-.82.44-1,1.78-.41C394.83,23.07,394.23,23.21,393.19,22.74ZM407,24.91a6,6,0,0,1,1.89-.3C408.28,24.7,407.65,24.79,407,24.91Zm7-3.6a5.55,5.55,0,0,1,4.45.08C416.28,22.43,414.37,21.31,414,21.31Zm5.29-2.84c-2.89-1-1.8-4.22,2.3-3.77-.33.55-.66,1.11-1,1.66C421.93,17.72,421.5,18.42,419.28,18.47ZM425.86,22q-2.94-.54-.84-1.49C426.68,20.94,427,21.44,425.86,22Zm14.06-3.76C435,18.13,435,17,438,15.44c-.38-.86.24-1.49,1.88-1.87C440.19,13.75,439.38,17.12,439.92,18.26ZM435,10.33c2.45-.09,4.15-.26,6.19-.28A26.18,26.18,0,0,1,435,10.33Zm10.26,3.75c-.16.53-.9.82-2.24.91C442.11,15.32,443.49,14,445.24,14.08Zm.3,2.42c1,.45,1,.9.06,1.37C444.48,17.42,444.45,17,445.54,16.5Zm-.74,7.18c2.05-.93,3.31-.81,2.95-2.26q2.22.42,2.13,1.5C449.85,24.48,446.66,24.17,444.8,23.68Zm14.61-2.16-4.15.58a1.35,1.35,0,0,1-.44-.63C456.9,20.7,459.68,19.8,459.41,21.52Zm.9-5.7a4.88,4.88,0,0,1,2.92.51C464.54,16.45,458.51,16.09,460.31,15.82ZM459.44,10h4.65a12.18,12.18,0,0,1,1.32,2.23l-.22,0A21.1,21.1,0,0,1,459.44,10Zm5.81,15.06c1.17-.54,1.72-.41,1.66.35C465.66,26,465.08,25.89,465.25,25.06ZM471,18c.4-.51,0-1.45.08-1.62C473.82,16.65,471.88,17.46,471,18ZM468,12.71c2.21-.18,5-.36,5.79.14C475.4,13.94,471,13.27,468,12.71ZM480.09,23.8c-2.57-.57,1.76-2.33,2.44-2.63C482.29,22.51,481.14,24,480.09,23.8ZM482.55,21a2.75,2.75,0,0,1-.87-1.69C482.44,19.54,482.66,20.24,482.55,21Zm5.54,3.38c-1.55-.55-1.47-.88.3-1C490.6,24,490.52,24.34,488.09,24.4Zm12.39-9.32c2.71-3.36,6.25,2.65,6.28,2.7C506.13,17.65,501.14,14.25,500.48,15.08Zm20.39.58c0-.95.85-1,2.7-.2A2.68,2.68,0,0,1,520.87,15.66Zm9.8,5.72a8,8,0,0,1-4.77-1.13c1.66-.3,3.38-.6,5.1-.86a5.39,5.39,0,0,1,2.89-1.95C532.61,18.2,532.34,20.65,530.67,21.38Zm9.63-5.95c1.15-1,1.89-1,2.22-.07C541.34,16.33,540.6,16.36,540.3,15.43Zm9.83-3.21c-.9-.21-.9-.53,0-.94C551,11.49,551,11.8,550.13,12.22ZM556,10h0Zm2.7,12.87c-1.61.22-1.63-1.58-1.39-3.08C560.07,20.92,560.55,22,558.65,22.87Zm-1.36-3.24a13.26,13.26,0,0,1,.43-1.73c2.54-.82,6.22-1.78,6.22-2.81C566.2,15.58,560.4,19.07,557.29,19.63ZM565,24.07c-1.93-.15-2.54-.54-1.75-1.17C565.33,23,565.93,23.34,565,24.07Zm7-6.19c4-.1,6.06.48,6.2,1.72C577.37,20.66,567.76,19.64,571.91,17.88Zm12.58,2.18c-2.13-1.57,8.44-.9,9.37-.38C593,21.06,585.86,21.07,584.49,20.06Zm9.58,2.73c-.65,0,.49-.89,1.61-1.23C596.34,21.39,594.7,22.63,594.07,22.79Zm-.24-8.54a8.24,8.24,0,0,0,2.41-2.56l2.23.74C597.68,13.76,596.15,14.38,593.83,14.25Zm8.24,1.82c1.12-.44,1.86-.34,2.24.29A1.49,1.49,0,0,1,602.07,16.07Zm2-3.76c-2.4-.77,0-3,1.61-1.32C605.18,11.43,604.64,11.88,604.09,12.31Zm7.07,2.26c1.83.74,1.2,4.17.9,3Q608.29,16,611.16,14.57Zm-.3,7.82c-1.31-.84-1-3.29,3.38-2.39C615.53,21.07,614.38,21.87,610.86,22.39Zm11.91-1.51c-1.16.18-2.35.33-3.56.44-2.86-.09,4-7.71,6.8-6C625.07,14.73,622.15,20.57,622.77,20.88Zm21.74-5.17c-.6-.2-12.44,3.42-10.51-1.13-.24.55,5.68-1.73,6-1.9,1,2.34,9.34,1.16,10.54-.51,1.55.4,2.4,1,2.57,1.88C653.49,18.72,646.81,16.39,644.51,15.71Zm15,2.62c-.87-.56-.57-1,.85-1.19C661.63,18,661.35,18.37,659.52,18.33Zm7.89-.48c-3.16,1.37-6.63-2.28-3-2.59C667,15.39,668,16.26,667.41,17.85ZM667,10h3.29c.3.37,0,.77-1.94,1.44C667.28,11,666.84,10.49,667,10Zm1.68,3.79,2.35-.75a2,2,0,0,1,1.42.72A2.73,2.73,0,0,1,668.72,13.79Zm4.2,4.87a9.88,9.88,0,0,1,5.43-.09C676,19.55,675.37,19.86,672.92,18.66Zm16.33,5c-2.71,4-6.17-.44-9.09-1.87-.17,1.14-1.26,2-3.28,2.66-.94-.6,2.63-3.29,2-5.73,3.74,1,7.57,3.26,10.34,4.94Zm6.38-11.26c-1.58-.12-1.88-.46-.9-1C696.26,11.46,696.56,11.81,695.63,12.39Zm1.94,5.71c.19.17,3.58-3.15,3.77-3.12.73.28,1.5.57,2.24.87C705.27,14.76,699,19.25,697.57,18.1Zm7.78-.63a5.55,5.55,0,0,1,4.56-1C710,16.55,709.12,20.29,705.35,17.47Zm5.95,2.09c1.36-.95,2.4-.82,3.08.37C712.69,20.8,711.65,20.68,711.3,19.56ZM717,17c-5.59-.48-1.55-4.67-1.36-3C718,14.71,718.45,15.72,717,17Zm7.78-3.37c-1.15.66-1.69.52-1.66-.42C724.37,12.67,724.92,12.81,724.81,13.59Zm11.74,3.17c-4.29-2.19-3.61-1.64-.41-3.42C738.7,15.05,739.44,14.71,736.55,16.76Zm12-4.6c-2.61,1.16-4-.51-4.7-2.16h3.46C747.92,10.81,748.8,12,748.53,12.16Zm10.86-.74c-1.06-.23,0-1.05.24-1.42h.15C760.19,10.48,760.09,11,759.39,11.42Zm17-.5a1,1,0,0,1-.29-.92h1.22A1.75,1.75,0,0,1,776.37,10.92Zm6,13a4.5,4.5,0,0,1,3.49-.41C785.54,24.52,784.39,24.66,782.4,24Zm7.1-4.4a16.83,16.83,0,0,0-4.23.63c.1.18-.47-1.9.79-1.55,4.64,1.23,2.59.43,6,1A2.87,2.87,0,0,1,789.5,19.55Zm4.12-3.61a2.09,2.09,0,0,1,2.67-.19A2.53,2.53,0,0,1,793.62,15.94Zm4.86-2.33c-1.86-.63-2.65-1.51-2.38-2.63C799.11,9,799.76,12.52,798.48,13.61Zm11.08,8.65c-.22.73-.93.86-2.1.4C807.67,22,808.39,21.87,809.56,22.26Zm-6.85-4.56c0-.62,6.52-4.34,6.33-3.24C809,14.86,804.07,17.14,802.71,17.7Zm15.2-6.62c-1.48-.07-1.78-.37-.87-.88C818.65,10.21,818.92,10.51,817.91,11.08Zm22.46,1.49c-.93.7-2.18,3.11-3.77,3.46-4.77,1.07-3.13-1.42-1.58-2.62.79.07,4.21-.92,6.66-1.78a8.21,8.21,0,0,1,4.75-.51C843.37,12,842.39,11,840.37,12.57Zm24-2.11c-.66-.11-.86-.27-.75-.46h9.49l-.17.14A56.2,56.2,0,0,1,864.34,10.46Zm4.17,10.64c.25-1,1.37-1.62,2.43-2.44a19.81,19.81,0,0,1,2.12,2.06A8.93,8.93,0,0,1,868.51,21.1Zm11.74-3.91c-5,.26-6.58-.59-13.18-2.93,5.18-1.9,6.6-1.4,8.89,1.77C880.33,13.57,880.33,17.19,880.25,17.19Zm1-3.33c-4-1.23-5-2.34-3-3.33,2.46-.11,4.31.34,5.48,1.34C883.8,12.84,883,13.5,881.26,13.86Zm13.26.5c0,.18,0,.37-.07.55-7.45-.05-5.78-.19-4.32-2.1C892,10.46,895.15,14.54,894.52,14.36ZM901.23,10h5.93C904.9,11.61,900.79,12.09,901.23,10Zm14.44,2.29c-1.82-.49-4.77-2.33.25-2.13a.86.86,0,0,0,0-.16h.14A16,16,0,0,0,915.67,12.29ZM1169.2,23.65l-.12-.13.18.06Zm-.62-3.93c-1.48-.48-1.5-1,0-1.53C1169.51,18.59,1169.51,19.1,1168.58,19.72ZM1181.27,11c0,.8-4,6.62-6.2,6.06-1.69-.42-.76-3-3.19-2.91a2.6,2.6,0,0,0-1.38.76c.08-1-1.34-1.59,2.69-3.29-6.57,0-6.88-.59-5.56-1.61h5.25C1174.63,11.7,1175.7,13,1181.27,11Zm38.47-1h1.45c.27.05.54.11.83.15C1221.42,10.13,1220.64,10.07,1219.74,10Zm14.64,10.2c-4.5-.42-.16-1.2-.57-1.33a30.27,30.27,0,0,0,4.44.5C1237.14,19.58,1236.39,20.38,1234.38,20.2Zm6-.52a4.44,4.44,0,0,0-.68-.22c.92.06,1.78.1,2.5.12C1241.57,19.62,1241,19.67,1240.36,19.68Zm3.28-.2c-.54-.79-3.72-3.05-2.41-3.11,2.22-.1,4.59,2.68,9.45,2.17C1248.44,18.85,1246.08,19.24,1243.64,19.48Zm5.51-9.23a5.16,5.16,0,0,1-.94-.25h12.21a1.1,1.1,0,0,0-.32.48c.19,0,1-.24,2.09-.48h6.47c0,1.09-5.28,1.48-5.7,1.75C1257.09,8.89,1255.8,11.36,1249.15,10.25Zm12,7.89c.08,0-3.33-1-4.87-1.35-.07-.28-1-.9-1-.93,8.62.21,15.81-.63,8.71,4.44C1262.57,19.51,1261.5,18.27,1261.13,18.14ZM1272.79,21c-.25.19-4.64-.8-4.59-.78a3.43,3.43,0,0,1-4,.29C1266.78,20.07,1275.57,18.85,1272.79,21Zm-1.67-5.88c-.91-1.88-3.52-2-1-2.16.4,1.06,1.66,1.34,3.26,1.28A7.28,7.28,0,0,0,1271.12,15.08Zm5,3.66a1.84,1.84,0,0,0-1.06-1.39C1276.35,17.8,1277.5,18.23,1276.14,18.74Zm.82-3.17a4.66,4.66,0,0,0,.93-1.52,18.64,18.64,0,0,0-1.91-.12c2.61-.4,5.29-1,6.25-.44C1284.17,14.68,1278.35,15.62,1277,15.57ZM1287.18,10h3.24a23.47,23.47,0,0,1,5.84,2C1291.16,14,1288.21,12.83,1287.18,10Zm25.29,5.41c-4.66.35-8.82-3.26-7.75-5.41H1308c-2.27,3,3.27,6.14,7.12,2-5.95-.93-2.77-1.66,0-2h2.55A5.22,5.22,0,0,1,1312.47,15.41Zm10.59-4.06c-1.83-.42-2.13-.73-.85-.92C1324.1,10.8,1324.37,11.11,1323.06,11.35Zm13.29,6c-2.34,1.63-6-2.95-5.24-2.15a5.94,5.94,0,0,0,1.92,0C1335.6,15.56,1336.74,16.25,1336.35,17.36Zm-1.56-3c-3.36-.49-5.6-1.43-6.71-2.84a13.48,13.48,0,0,0,4.76-1.48h2.75c.57.16,1.27.38,2.18.7C1342.87,12.49,1339.36,12.66,1334.79,14.32Zm9.83-2.37c1.61.8,2.4,1.78,2.43,3C1341,17.44,1342.74,13.08,1344.62,12Zm3.3,4.55a2.38,2.38,0,0,1,2.73.37C1349.45,17.68,1348.55,17.55,1347.92,16.5Zm6.53,3.78c2.73-.42,4.2-.22,4.42.64C1358.21,21.82,1353.14,20.09,1354.45,20.28ZM1378,17c.55-.94,1-.91,1.23.06C1378.71,18,1378.3,17.92,1378,17Zm-2.1-3.34c2.15-.22-10.24-.08-5.43,1a7.16,7.16,0,0,0-3.82.68c-.52-.11-1.37-4.33-9.5-2.07-1.17-1.57-1-2.6-.1-3.18h6.08a10.55,10.55,0,0,1,3.6,1.83c.41-1.64,10.34-1.85,13.18-.87a4.34,4.34,0,0,1-.93,2.76,5.35,5.35,0,0,1,4.21.51C1380,14.59,1379.29,13.26,1375.93,13.61Zm10.94-1.76c1.59-1.51,2.6-1.76,3-.74A2.77,2.77,0,0,1,1386.87,11.85Zm2.49,4.07c.54-.69,1.17-.62,1.83.2C1390.39,16.71,1389.79,16.64,1389.36,15.92Zm10.12-1.81c1.5-.52-4.86-2,2.43-2.82a1.67,1.67,0,0,1-.8-1.29h.92C1403.08,11,1401,13.57,1399.48,14.11Zm18.61,2.56a4,4,0,0,0-1-.71c-8.68,1.06,1.93-3.91-5.58-6h3.92c1.07.77.52,2.41.23,3.43,4.67,0,2.79-.09,6.66-1.49C1422.87,12.74,1417.43,15.17,1418.09,16.67ZM1473,20.91a16.85,16.85,0,0,0-4-3.59,14.55,14.55,0,0,1,6.52-.13C1475.6,18.52,1474.73,19.76,1473,20.91Zm0-7.4c.34.67-.09,1.32-1.29,1.92C1469.89,14.7,1470,13.54,1473,13.51Zm12.5,1.75c-1.18,0-4.45.2-6.66.13-2.73-.12-2.21-2-5.78-2-4.59-3.43-10.29,1.57-9,4.11-7.15.49-5-1.66-8.49-3.55.09,0,13.75-3.55,17.07-4h.7s0,0,0,0a0,0,0,0,0,0,0H1477c1.82,1.38,6,2.12,8.18,1.09-1.33.88-1.8.14-1.51,3.29C1492,13.44,1490.92,15.37,1485.46,15.26Zm10.89,2.38c-2.35.88-5.13,2.57-8.44,2-1.47-.26,8.14-5,7.78-4.81.88-.4,3.36,3.09,3.41,3.16Zm6.25,6.67c-.66-.43-.6-.78.19-1C1503.5,23.71,1503.42,24.06,1502.6,24.31Zm3.63-3c-.71-.19-3.2-1.34-2.49-1.16C1506,19.92,1507.35,20.32,1506.23,21.35Zm2.29-4.13c2-1.12,4.87-1.2,7-1.17C1514.24,16.48,1515,17.49,1508.52,17.22Zm3.71,3.55c.17-.08,1.07-1.49,4.4-.52A7,7,0,0,1,1512.23,20.77Zm1.45-8c-.25-.39-.49-.79-.74-1.17a17.08,17.08,0,0,1-7.34.74c.44-.42,4.94-2.42,6.09-2,3.35,1.27,9.9,1.19,12.5,3.94S1514.83,10.48,1513.68,12.77ZM1539.53,17c-5.46-1.47-5-4.89.9-5.66-.9-.47-.82-.87.25-1.16.13,1.06-.44,2.14,2.86,1.37a1.74,1.74,0,0,1,1.24-1.56h2c2.77.61,6,3.22,3.65,4.35C1543.76,17.63,1535.49,8.36,1539.53,17ZM1557,21.73c2.58-1,5.36-.48,6,.66C1560.34,23,1558.31,22.84,1557,21.73ZM1564.8,16c.11-.16-10.59,3.56-12.06,4.72a3.31,3.31,0,0,1-2.43-3.14,11.46,11.46,0,0,0,5.57,1c0-2.12,3.57-6.64,2.67-8.32a1.51,1.51,0,0,0-.12-.2h3.82c-1.34,1.75-2.24,2.36,2.63,2.7-.71-.88.14-1.89-.49-2.7h3.34A43.82,43.82,0,0,1,1564.8,16Zm4.48,7.44c.87-1.26,2.43-1.69,4.66-1.31C1572.91,23.34,1571.35,23.77,1569.28,23.42Zm3.52-10.65c1.36-.9,2.29-.94,2.75-.1A2.16,2.16,0,0,1,1572.8,12.77Zm2.7,11.16c.79-.65,1.45-.6,1.91.15C1576.78,24.94,1576.13,24.89,1575.5,23.93Zm.76-5.64c1.16-.76,2.78-.87,4.84-.37A5.18,5.18,0,0,1,1576.26,18.29Zm.88,2.81,1.64-.64a21.4,21.4,0,0,1,2.73.67A20.63,20.63,0,0,1,1577.14,21.1Zm4.09-3.24,0,0c-2.69-1.05-5.61-2.65-.85-3.36,4.5-.7,5.3,2.39,7.67,2.1,2.1-.26.93-2.5,1.83-3.35,1.55.64,3.25,3.63,1.94,4.42C1591.58,18.11,1583.61,17.79,1581.23,17.86Zm13.92,5.08c-1.23.39-7.29-2.41-6.36-3.21l5.93,1C1594.58,20.65,1597.06,22.35,1595.15,22.94Zm-.38-6.52c-.49-1.16,0-2.28,1.49-3.32,1.23,1.07,2.19,1.92,2.93,2.58A10.82,10.82,0,0,1,1594.77,16.42Zm4.59,5.22c1.19-.54,1.8-.4,1.8.39C1599.82,22.63,1599.22,22.51,1599.36,21.64Zm16.51-11.48a1.43,1.43,0,0,1-1.35-.16h1.61A.41.41,0,0,1,1615.87,10.16Zm3.3,2.68c-.43-.8,1.12-1.24,1.15-1.14.3,1.65-1.7.06-.9,2.88a17.08,17.08,0,0,1-2,.1C1616.69,13.73,1616,12.8,1619.17,12.84Zm-2.27,7c.36-.56,1-.46,1.78.32l2.4.36C1620.07,21.16,1618.81,20.07,1616.9,19.87Zm.36-2.7c-1.25-1.5,3.49-.67,4.07-.36A4.34,4.34,0,0,1,1617.26,17.17Zm8.32,4.72c.85-.61,1.4-.64,1.62-.09C1626.73,22.57,1626.21,22.6,1625.58,21.89Zm5.44,1.69c-.55-.63-.5-1.83,1.88-1.68C1636.15,20.55,1631.64,23.15,1631,23.58Zm1.44-12.28c.74.26,1.45.53,2.18.78C1633.61,14,1631.7,12,1632.46,11.3Zm7.4,13.37c-1.2-.22-1.42-.6-.65-1.13C1641.2,23.8,1641.41,24.18,1639.86,24.67Zm5.24-2.32c-.79-.56-.47-.88,1-1C1646.82,21.92,1646.49,22.25,1645.1,22.35Zm.79-3.7c-2.29.78-3.57.33-4.12,0a17.59,17.59,0,0,1,7.32-2.46A15.24,15.24,0,0,1,1645.89,18.65Zm7.34,2.27a5.58,5.58,0,0,1,3.22,1.27C1655,22.58,1649.52,19.83,1653.23,20.92Zm4.31-8.61c-1.58,0-2.26-.39-2-1.21C1657.05,11,1657.74,11.43,1657.54,12.31Zm11.55,11.2c-1.53-.53-1.28-1,.74-1.48C1670.78,22.58,1670.54,23.08,1669.09,23.51ZM1667.31,16a12.61,12.61,0,0,0,4.54,2C1662.32,19.62,1668.07,16.77,1667.31,16Zm16.3,9.54c-2.29-.33-2.62-.84-1-1.56C1684.65,24.36,1685,24.89,1683.61,25.54Zm3.28-4.88c.92-.47,1.63-.43,2.15.12C1688.11,21.44,1687.38,21.41,1686.89,20.66Zm6.93,2.64c-1.89-.75-1.69-1.33.54-1.73C1696.08,22.21,1695.89,22.79,1693.82,23.3Zm8.35-.18c1.91-1.5,3.74-1.88,5.49-1.16C1707.44,22.78,1703.53,23.63,1702.17,23.12Zm10.51-4.8c-.56-.44-.21-1.11.49-1.86C1714.56,17.39,1714.39,18,1712.68,18.32Zm2.62,3.32c2.48-.8,3.49.09,5.54,1,1.17-.37,1.83-.75,2.86-.23C1718.9,23.28,1719.83,23.85,1715.3,21.64ZM1722,10.1a.44.44,0,0,0,0-.1h1.66c.32.3.61.65.84.91C1723,11.14,1722.11,10.89,1722,10.1Zm6.44,4.65c.44-.87,1.15-.91,2.13-.14C1729.6,15.68,1728.89,15.72,1728.4,14.75Zm1-2.86a19.61,19.61,0,0,0,5.21-1.22c1.23.82,2.43,1.66,3.63,2.49C1736,13.72,1731.05,12.79,1729.41,11.89Zm20.77,4.19c1.2-1-.55-1.82,4.48-.36C1753.78,16.69,1752.31,16.81,1750.18,16.08Zm47,3.61c1.31-.12,7.56-1.06,7.7-.15C1803.46,20.73,1798.52,22,1797.18,19.69ZM1807,25a17,17,0,0,1,2.72-.27A4.36,4.36,0,0,1,1807,25Zm2.75-7.13c0-1.11-.44-1.18-.27-1.14a15.18,15.18,0,0,0,2.34.59A14,14,0,0,1,1809.79,17.87Zm4.2,2.73a7.92,7.92,0,0,1,6.2.79C1816.67,22.58,1818.09,22.66,1814,20.6ZM1828.51,24c-2.92-.29-.52-2.35.71-2.8,0-1.12.55-1.31,1.8-.57C1827.83,21.32,1828.48,22.33,1828.51,24Zm5,.23c1.31-.53,2-.39,2.1.42C1834.46,25.27,1833.75,25.13,1833.51,24.2Zm2.26-9.13c-.73-1.55,2.51-4.86,5.46-3.13C1839.78,13,1838.5,14.64,1835.77,15.07Zm19,9.69c-2.27-.63-2.18-1,.24-1.15C1855.27,23.94,1856.48,25.3,1854.8,24.76Zm.08-5.92c2.27-.65,4.78-.48,6.28-.87A17.65,17.65,0,0,1,1854.88,18.84Zm-.58-6.62s10.73.43,8.79-.38C1869.37,13.11,1852.86,14.29,1854.3,12.22Zm40.21,1.13c1.12-.42,1.74-.28,1.91.42C1895.19,14.21,1894.54,14.07,1894.51,13.35Zm-124.68-3.28-.33-.07h.07Z"></path>
    </g>
  </g>
</svg>